<svg xmlns="http://www.w3.org/2000/svg" xmlns:xlink="http://www.w3.org/1999/xlink" viewBox="0 0 2004 1152">
  <defs>
    <radialGradient id="radial-gradient" cx="4369.393" cy="1404.27813" r="87.39852" gradientTransform="matrix(-0.41595, -0.90939, -0.90939, 0.41595, 3950.40025, 4194.43628)" gradientUnits="userSpaceOnUse">
      <stop offset="0" stop-color="#e79cda"/>
      <stop offset="0.34491" stop-color="#e69ad8"/>
      <stop offset="0.53013" stop-color="#e195d0"/>
      <stop offset="0.67693" stop-color="#d98bc2"/>
      <stop offset="0.76357" stop-color="#d282b6"/>
      <stop offset="0.84973" stop-color="#ce77b0"/>
      <stop offset="1" stop-color="#c359a0"/>
    </radialGradient>
    <radialGradient id="radial-gradient-2" cx="4619.97239" cy="1519.73671" r="105.53908" gradientTransform="matrix(-0.94709, -0.32097, -0.32097, 0.94709, 5403.8176, 857.52467)" xlink:href="#radial-gradient"/>
    <radialGradient id="radial-gradient-3" cx="4275.42932" cy="1437.42483" r="105.59372" gradientTransform="matrix(-0.94709, -0.32097, -0.32097, 0.94709, 5403.8176, 857.52467)" xlink:href="#radial-gradient"/>
    <radialGradient id="radial-gradient-4" cx="4550.11455" cy="1436.2719" r="124.62732" gradientTransform="matrix(-0.94709, -0.32097, -0.32097, 0.94709, 5403.8176, 857.52467)" xlink:href="#radial-gradient"/>
    <radialGradient id="radial-gradient-5" cx="4429.92175" cy="1325.59076" r="329.7261" gradientTransform="matrix(0.2718, -0.96236, -0.96236, -0.2718, 1018.35949, 5606.78888)" xlink:href="#radial-gradient"/>
    <radialGradient id="radial-gradient-6" cx="4462.20375" cy="1433.96604" r="159.6754" gradientTransform="matrix(0.2718, -0.96236, -0.96236, -0.2718, 1001.05147, 5588.62253)" gradientUnits="userSpaceOnUse">
      <stop offset="0" stop-color="#e17fd2" stop-opacity="0"/>
      <stop offset="0.10658" stop-color="#e17fd2" stop-opacity="0.06945"/>
      <stop offset="0.31385" stop-color="#e17fd2" stop-opacity="0.25145"/>
      <stop offset="0.60127" stop-color="#e17fd2" stop-opacity="0.54552"/>
      <stop offset="0.95464" stop-color="#e17fd2" stop-opacity="0.9462"/>
      <stop offset="1" stop-color="#e17fd2"/>
    </radialGradient>
    <radialGradient id="radial-gradient-7" cx="4455.69313" cy="1484.39959" r="94.31593" gradientTransform="matrix(-0.94709, -0.32097, -0.32097, 0.94709, 5403.8176, 857.52467)" xlink:href="#radial-gradient"/>
    <radialGradient id="radial-gradient-8" cx="814.19382" cy="1053.81935" fx="829.3545600140772" fy="1066.5697861611643" r="43.07239" gradientUnits="userSpaceOnUse">
      <stop offset="0.76357" stop-color="#d282b6"/>
      <stop offset="0.84973" stop-color="#ce77b0"/>
      <stop offset="1" stop-color="#c359a0"/>
    </radialGradient>
    <clipPath id="clip-path">
      <path d="M782.17943,1079.77683c-17.8332-22.57281-31.17044-42.64956-26.486-53.29737,3.12026-7.09245,12.2138-20.3888,32.15323-15.97087s42.588,24.11944,49.65335,31.9696c12.4973,13.88546,4.23935,31.92445-11.28011,42.33622S796.46491,1097.859,782.17943,1079.77683Z" style="fill: none;clip-rule: evenodd"/>
    </clipPath>
    <radialGradient id="radial-gradient-9" cx="1155.0991" cy="2097.56336" fx="1102.8618024815323" r="52.25923" gradientTransform="translate(1412.99689 -1261.32772) rotate(43.56387)" gradientUnits="userSpaceOnUse">
      <stop offset="0.14026" stop-color="#d282b6"/>
      <stop offset="0.34098" stop-color="#ce77b0"/>
      <stop offset="0.69104" stop-color="#c359a0"/>
    </radialGradient>
    <radialGradient id="radial-gradient-10" cx="6664.57642" cy="1053.81935" fx="6679.7371587640555" fy="1066.5697862965026" r="43.07239" gradientTransform="matrix(-1, 0, 0, 1, 7270.62591, 0)" xlink:href="#radial-gradient-8"/>
    <clipPath id="clip-path-2">
      <path d="M638.06388,1079.77683c17.8332-22.57281,31.17044-42.64956,26.486-53.29737-3.12026-7.09245-12.2138-20.3888-32.15323-15.97087s-42.588,24.11944-49.65335,31.9696c-12.4973,13.88546-4.23935,31.92445,11.28011,42.33622S623.7784,1097.859,638.06388,1079.77683Z" style="fill: none;clip-rule: evenodd"/>
    </clipPath>
    <radialGradient id="radial-gradient-11" cx="5394.32499" cy="-1934.30225" fx="5342.0876982117525" r="52.25923" gradientTransform="matrix(-0.72461, 0.68916, 0.68916, 0.72461, 5857.62902, -1261.32772)" xlink:href="#radial-gradient-9"/>
  </defs>
  <title>Reblood Asset Web</title>
  <g style="isolation: isolate">
    <g id="Layer_1" data-name="Layer 1">
      <g>
        <path d="M1811.28052,1093.13893c39.66087-46.86407,74.2579-580.7769-23.63057-640.20914-102.4005-62.17177-184.68667,41.44779-265.14413-40.83826-35.09053-35.888-6.09529-124.953-78.629-154.21034-101.88273-41.09554-357.18282,113.372-316.954-.60953S734.968,79.75591,734.968,79.75591C363.9494,31.04127,405.78277,227.73666,405.78277,227.73666c4.39243,24.87189,1.49444,161.93767-106.6672,201.144-149.2299,54.09255-96.84515,177.65006-82.21652,220.92649,12.74116,37.6924,84.72429,82.286-20.11439,179.81038-100.08324,93.10087.91676,249.52257,10.28523,263.52145Z" style="fill: #eafcfc"/>
        <path d="M792.5534,1093.33661c-15.7499-20.42016-102.11644-129.82032-158.43068-148.051-62.16143-20.12345-3.57477,59.802-3.57477,59.802S520.27554,884.50771,479.80928,895.37813c-37.094,9.96465,0,84.7053,0,84.7053s-41.77877-41.38725-92.44373-41.38725c-49.30906,0,34.44891,146.7835,38.96765,154.64043Z" style="fill: #96d9c9"/>
        <g>
          <path d="M1540.66862,869.52258c23.00551-36.96866,27.29831-81.60986,26.84831-112.5493a296.94609,296.94609,0,0,0-6.57615-58.98653l1.66412-.603a299.0213,299.0213,0,0,1,6.63317,59.39539c.45929,31.2438-3.88218,76.3437-27.17247,113.77066Z" style="fill: #3c8f7c"/>
          <path d="M1555.27615,691.843c.56527,7.60054,3.837,13.97515,8.54728,17.88783a29.86709,29.86709,0,0,0,5.71887-20.141c-.56538-7.60047-3.83715-13.97508-8.54745-17.88788A29.86661,29.86661,0,0,0,1555.27615,691.843Z" style="fill: #3c8f7c"/>
          <path d="M1570.82467,709.38794a29.81481,29.81481,0,0,0-3.86231,20.566c5.97608-1.46551,11.7605-5.76636,15.66295-12.34393a29.81562,29.81562,0,0,0,3.86237-20.566C1580.51147,698.50952,1574.72706,702.81043,1570.82467,709.38794Z" style="fill: #3c8f7c"/>
          <path d="M1579.63345,730.03427A28.51569,28.51569,0,0,0,1567.8857,746.951c5.75955,1.68641,12.51339.67337,18.57359-3.384a28.514,28.514,0,0,0,11.74786-16.91663C1592.44754,724.964,1585.69364,725.97694,1579.63345,730.03427Z" style="fill: #3c8f7c"/>
          <path d="M1576.917,758.78635c-4.79782,3.22256-7.77159,8.73172-8.58261,14.8236a15.77312,15.77312,0,0,0,15.42261-1.30041c4.79771-3.22257,7.77159-8.73172,8.58272-14.82366A15.77332,15.77332,0,0,0,1576.917,758.78635Z" style="fill: #3c8f7c"/>
          <path d="M1557.09057,724.72014a19.0671,19.0671,0,0,0-16.59776-.98988,21.37417,21.37417,0,0,0,10.38833,13.85053,19.06727,19.06727,0,0,0,16.59794.98983A21.37417,21.37417,0,0,0,1557.09057,724.72014Z" style="fill: #3c8f7c"/>
          <path d="M1557.68794,744.57727a19.06734,19.06734,0,0,0-16.59788-.98982,21.37384,21.37384,0,0,0,10.38844,13.85047,19.06665,19.06665,0,0,0,16.59776.98976A21.37422,21.37422,0,0,0,1557.68794,744.57727Z" style="fill: #3c8f7c"/>
        </g>
        <g>
          <path d="M1556.14766,1050.37322c50.96643-18.49412,86.6157-62.60567,107.54688-96.35406a361.44647,361.44647,0,0,0,33.60138-69.64417l2.25208.89366a363.99962,363.99962,0,0,1-33.82139,70.13744c-21.13178,34.08483-57.15247,78.64534-108.7503,97.369Z" style="fill: #96d9c9"/>
          <path d="M1695.30528,872.50381a36.60247,36.60247,0,0,0-2.96476,27.19639c8.10344-1.96883,15.613-7.68265,20.25369-16.395a36.6023,36.6023,0,0,0,2.96477-27.19634C1707.4556,858.07761,1699.94593,863.79148,1695.30528,872.50381Z" style="fill: #96d9c9"/>
          <path d="M1700.2969,905.82271a32.43327,32.43327,0,0,0-18.50147,18.57429,31.14922,31.14922,0,0,0,25.81734,1.22564,32.43391,32.43391,0,0,0,18.50147-18.57435A31.14973,31.14973,0,0,0,1700.2969,905.82271Z" style="fill: #96d9c9"/>
          <path d="M1695.70979,936.23314a30.76178,30.76178,0,0,0-24.66776,7.331,33.63324,33.63324,0,0,0,22.82107,13.577,30.76151,30.76151,0,0,0,24.6677-7.33092A33.63377,33.63377,0,0,0,1695.70979,936.23314Z" style="fill: #96d9c9"/>
          <path d="M1677.7415,965.369a30.7608,30.7608,0,0,0-24.66764,7.331,33.6332,33.6332,0,0,0,22.82089,13.577,30.76135,30.76135,0,0,0,24.66776-7.33093A33.63325,33.63325,0,0,0,1677.7415,965.369Z" style="fill: #96d9c9"/>
          <path d="M1679.178,919.99046a35.78314,35.78314,0,0,0-10.03-23.1705c-5.03875,5.476-7.96385,13.66032-7.44778,22.86015a35.78323,35.78323,0,0,0,10.03,23.17057C1676.769,937.37473,1679.69411,929.19047,1679.178,919.99046Z" style="fill: #96d9c9"/>
          <path d="M1660.4149,950.1471a35.90763,35.90763,0,0,0-9.69128-23.3469c-5.12116,5.377-8.16792,13.50092-7.78751,22.705a35.909,35.909,0,0,0,9.69127,23.34713C1657.7486,967.47523,1660.79542,959.35134,1660.4149,950.1471Z" style="fill: #96d9c9"/>
          <path d="M1647.0983,995.49775a12.62754,12.62754,0,0,0-10.95682-.515,14.47311,14.47311,0,0,0,7.15159,9.01914,12.62721,12.62721,0,0,0,10.95694.51508A14.47385,14.47385,0,0,0,1647.0983,995.49775Z" style="fill: #96d9c9"/>
        </g>
        <path d="M1378.95842,1092.85868s27.42275-170.66333,40.6684-189.25743c18.3052-25.69673,41.06685,53.15591,42.177,46.22527,10.48407-65.45153,8.29024-148.00091,57.32264-160.51053,27.87292-7.11127-1.84282,61.65141,1.61869,79.3686s49.82843-45.53634,78.38506-79.00189c28.55681-33.46555,46.04271-15.00146,29.48909,25.59769-16.00692,39.25848-73.9934,85.25946-61.013,89.19665s85.76542-50.75172,96.735-30.59647c13.44973,24.71255-98.67332,68.3336-87.42361,73.255,11.24954,4.92132,64.66232-18.21463,64.66232,1.471s-73.807,24.60481-71.8875,33.11641c3.10842,13.78276,49.47124-21.50309,53.09232-2.38022,3.70361,19.559-62.93812,21.04232-60.61021,36.3405,1.33779,8.79162,18.12258-.41021,21.15859,11.67592,6.92282,27.55987-98.09043,66.17873-98.09043,66.17873Z" style="fill: #3c8f7c"/>
        <g>
          <path d="M1462.97044,1092.85868s40.80052-65.113,60.77591-77.63059c21.28425-13.33781,5.6059,25.71924,5.6059,25.71924s43.0241-53.12753,55.442-42.71763c12.41793,10.40966,1.5464,22.92381,1.5464,22.92381s39.26682-12.4164,46.62631,1.94567c11.30879,22.06942-53.354,41.71623-53.354,41.71623s27.89721-.80238,23.0369,14.32458C1595.32015,1101.95259,1462.97044,1092.85868,1462.97044,1092.85868Z" style="fill: #50bfa5"/>
          <path d="M1632.96693,1023.09918c-7.35949-14.36207-46.62643-1.94561-46.62643-1.94561s10.87165-12.51421-1.5461-22.92387c-12.418-10.4099-47.01772,22.055-47.01772,22.055s3.21034-26.312-22.85975-2.71061c-18.62078,16.85744-51.94649,75.28458-51.94649,75.28458Z" style="fill: #96d9c9"/>
        </g>
        <g>
          <path d="M1446.00243,952.02182l-1.96965-1.15117c30.45152-54.03676,36.53594-116.07035,36.278-158.59519-.2802-46.14845-7.88191-79.92681-7.95867-80.26261l2.28082-.84059c.07759.338,7.73473,34.34234,8.023,80.76523C1482.92243,834.82317,1476.77941,897.40821,1446.00243,952.02182Z" style="fill: #50bfa5"/>
          <ellipse cx="1474.3971" cy="701.9201" rx="9.43449" ry="26.09553" transform="translate(-21.94516 48.08643) rotate(-1.8547)" style="fill: #50bfa5"/>
          <path d="M1485.18386,726.45451c-5.16443,9.57983-6.82355,20.0448-5.26117,28.81555,7.81695-2.83146,15.41385-9.53639,20.57809-19.11622s6.82367-20.04486,5.26117-28.81561C1497.945,710.16963,1490.34816,716.87468,1485.18386,726.45451Z" style="fill: #50bfa5"/>
          <path d="M1496.4629,753.65167a45.4964,45.4964,0,0,0-15.51589,24.872c7.50068,1.53376,16.32791-.78122,24.28218-7.189a45.49589,45.49589,0,0,0,15.51595-24.87184C1513.24446,744.929,1504.41717,747.24391,1496.4629,753.65167Z" style="fill: #50bfa5"/>
          <path d="M1488.98321,803.04919a18.9794,18.9794,0,0,0-7.17816,9.97106c3.07345.90378,6.81121.228,10.30545-2.20576a18.97894,18.97894,0,0,0,7.17816-9.97106C1496.21509,799.9396,1492.47745,800.61555,1488.98321,803.04919Z" style="fill: #50bfa5"/>
          <path d="M1487.28835,821.27282a18.97759,18.97759,0,0,0-7.178,9.97088c3.07344.90389,6.811.22794,10.30533-2.20565a18.97937,18.97937,0,0,0,7.178-9.97106C1494.52023,818.16316,1490.78265,818.839,1487.28835,821.27282Z" style="fill: #50bfa5"/>
          <path d="M1467.092,749.41788a23.689,23.689,0,0,0-21.65644.90313c1.72061,7.70051,6.40422,14.29,13.41345,17.634a23.689,23.689,0,0,0,21.65632-.90319C1478.78468,759.35126,1474.10113,752.76165,1467.092,749.41788Z" style="fill: #50bfa5"/>
          <ellipse cx="1463.53845" cy="785.91839" rx="10.13862" ry="19.43078" transform="translate(114.27906 1754.9961) rotate(-63.92276)" style="fill: #50bfa5"/>
          <path d="M1471.73525,815.39512a15.41846,15.41846,0,0,0-14.09564.58778,16.38951,16.38951,0,0,0,8.73061,11.4776,15.41866,15.41866,0,0,0,14.09558-.58795A16.38885,16.38885,0,0,0,1471.73525,815.39512Z" style="fill: #50bfa5"/>
        </g>
        <path d="M525.4255,667.84075a50.65572,50.65572,0,0,0,18.61978,39.2452c22.39652,18.27964,66.246,43.37659,138.14717,43.389l.28866,22.49984A23.78371,23.78371,0,0,0,706.568,796.45124h0a23.78356,23.78356,0,0,0,23.47639-24.08674l-.28836-22.474c75.2663-.59008,120.13586-27.68149,142.62348-47.01755a50.65625,50.65625,0,0,0,17.60669-39.71007l-9.26137-362.05712a47.11385,47.11385,0,0,0-38.5451-45.12612l-39.53238-7.2983a26.55338,26.55338,0,0,1-15.85593-9.452l-15.50585-19.24372a22.04363,22.04363,0,0,0-17.44787-8.21124L649.9469,213.10744a22.04356,22.04356,0,0,0-17.2315,8.65613l-15.007,19.63529a26.55287,26.55287,0,0,1-15.60818,9.85574l-39.332,8.31028a47.114,47.114,0,0,0-37.37458,46.10032Zm196.28089-413.494a19.27478,19.27478,0,1,1-19.52051-19.02588A19.27478,19.27478,0,0,1,721.70639,254.34674Z" style="fill: #c5ddf9"/>
        <path d="M844.20719,337.7568a18.02512,18.02512,0,0,1,15.89448,17.37511l7.37589,287.15124A43.95563,43.95563,0,0,1,852.015,676.8609c-20.35327,17.35641-61.58523,41.89115-131.40205,40.93518q-12.235-.16743-24.46821.31406c-69.76931,2.747-111.61714-20.7217-132.40918-37.55016a43.95538,43.95538,0,0,1-16.34461-34.16959l.00541-289.75247a18.03113,18.03113,0,0,1,15.6479-17.81071C678.24191,323.07962,781.94535,330.11647,844.20719,337.7568Z" style="fill: #daeef7"/>
        <path d="M561.77941,452.17855l143.14224,19.49716,142.72082-37.769.091-.14271,4.99585,195.306a40.42527,40.42527,0,0,1-14.05091,31.69022c-18.49794,15.90588-55.97222,38.38874-119.43053,37.50577q-11.12061-.15481-22.23964.28537c-63.41475,2.51088-101.45352-19.003-120.35362-34.429a40.4248,40.4248,0,0,1-14.85933-31.3192l-.01587-180.62458Z" style="fill: #f47458"/>
        <path d="M847.64241,433.90673S726.1061,470.979,653.266,431.1682c-72.84023-39.8107-135.707,18.7411-51.76968,60.95648C687.69114,535.47523,847.64241,433.90673,847.64241,433.90673Z" style="fill: #b75742"/>
        <path d="M584.47049,358.15759H599.0468A12.12238,12.12238,0,0,1,611.16918,370.28V638.2013a12.1224,12.1224,0,0,1-12.1224,12.1224H584.47051a12.12235,12.12235,0,0,1-12.12235-12.12235V370.27992a12.12233,12.12233,0,0,1,12.12233-12.12233Z" transform="translate(-6.42332 7.63692) rotate(-0.73543)" style="fill: #fff;opacity: 0.5;mix-blend-mode: screen"/>
        <g>
          <path d="M1272.45891,627.68949c-.53212-12.87987,1.35672-25.59869,7.09452-37.59018,4.93706-10.31691,17.15215-16.171,28.29172-16.18573,35.37249-.04585,39.87036,46.89023,62.38708,64.995,6.87992,5.5319,14.57032,10.0376,21.08065,16.00369,24.03953,22.02933,13.21126,62.80793-8.86268,82.12095-15.31793,13.40176-39.39256,21.01658-58.27185,10.53967-9.85491-5.46883-17.33619-14.55974-22.66607-24.5201-7.56451-14.13637-12.44062-30.44694-17.82093-45.51306C1277.96466,661.50353,1273.16636,644.80949,1272.45891,627.68949Z" style="fill: #184655"/>
          <path d="M1348.3184,633.00456s25.97951-46.56725,32.30009-56.46583,22.78545-49.2343,23.37412-50.78458c.58854-1.55009-11.339-20.16518-8.6763-20.80245,2.66253-.63733,5.60808,9.8143,8.44853,8.56556,2.84028-1.24857,11.1381-26.40959,12.75673-25.16138,3.02878,2.33549-4.47243,15.608-2.858,16.44429,1.61464.83642,6.50544-14.60277,9.67623-14.14836,3.17055.4543-6.03,14.15083-5.14338,15.36031.88661,1.20977,10.43864-11.695,12.16677-8.94385.93857,1.49384-8.78238,11.26511-6.91542,12.18,1.8668.915,10.514-5.39212,11.4297-3.57318.91588,1.81878-7.997,4.30926-10.66223,9.21265s-7.204,7.02316-9.08921,16.10332c-1.885,9.08016-4.70184,41.93853-14.35732,58.33209-9.65518,16.39357-30.88836,52.67611-30.88836,52.67611Z" style="fill: #f79c8d"/>
          <path d="M1210.84359,804.36735l40.393-30.81348s4.06339-28.74584,9.50424-54.25642c6.81538,1.925,12.96663,7.27068,19.78947,9.136l-10.27106,57.126-52.94091,27.31212L1202.36467,832.09l-3.40137-19.72875Z" style="fill: #f48c7f"/>
          <path d="M1266.68108,690.05882c11.04858-33.51563,23.40415-32.088,23.40415-32.088l-9.55491,70.46266c-6.82284-1.86532-15.70651-6.01782-22.52189-7.94286A306.97582,306.97582,0,0,1,1266.68108,690.05882Z" style="fill: #50bfa5"/>
          <path d="M1383.03028,1042.34731s2.49178,17.32537,6.7794,22.91564c1.43936,1.87649,4.06763,4.24977,5.79329,7.64139,2.68563,5.27886,1.20078,13.1382-.78028,17.46685-1.017,2.22176.07148,2.21529-2.2442,2.93132a14.215,14.215,0,0,1-17.07252-8.033,40.87647,40.87647,0,0,1-3.34947-14.76318c-.73214-15.7302-5.6133-23.72849-5.6133-23.72849Z" style="fill: #f7a491"/>
          <path d="M1308.02472,1050.27142s-1.53881,19.53578-.29007,25.88476c.66877,3.39972,4.3929,10.39784,2.68469,13.59719-1.70839,3.19941-3.66088,3.99933-3.66088,3.99933l-44.27537.71468c-2.41172.039-.818-1.51648,1.12654-2.94955,3.18307-2.34571,5.75156-3.8964,15.91917-8.82588.66284-.32134,3.07733-1.86015,3.948-2.39309a30.66436,30.66436,0,0,0,6.33322-5.60743c3.179-3.5475,3.45692-20.75143,3.45692-20.75143Z" style="fill: #f7a491"/>
          <path d="M1273.41952,790.59171s-5.57563,31.71913-1.91493,52.51376,21.23159,213.54578,21.23159,213.54578l19.52579,1.104s4.09284-80.51636,3.36058-91.71359-6.52643-29.93527-6.52643-29.93527l1.94315-65.00794-24.63972-85.40223Z" style="fill: #3c8f7c"/>
          <path d="M1330.80664,783.92068s15.37465,23.19408,19.0354,42.38918c3.66059,19.19505-2.68686,78.18622,4.35493,103.34,3.81194,13.61653,18.25966,34.64446,20.456,52.24s10.81252,63.68595,10.81252,63.68595l-19.51674,3.87736-45.35835-115.10757L1285.0115,830.30566l-9.11413-53.58318Z" style="fill: #50bfa5"/>
          <path d="M1318.36061,651.95421s20.35644-1.29959,28.40987,7.49826c8.0533,8.79767-17.86484,78.39306-19.32912,89.59023s7.46482,40.96934,7.46482,40.96934-47.81975,9.64448-61.48666.57967c0,0-1.46446-80.517,0-88.51542,1.46422-7.99829,13.66691-40.525,16.59559-43.7242C1292.94373,655.15256,1318.36061,651.95421,1318.36061,651.95421Z" style="fill: #66ccb2"/>
          <path d="M1311.58379,624.69139s.10539.601.29454,1.62328c.90771,4.90527,4.40271,21.17751,6.76389,25.651,2.85332,5.406-9.76869,22.64814-21.91718,20.54389-3.61638-.62652,3.05675-15.84241,2.736-17.45416-.61382-3.08538-1.44635-7.29448-2.29822-11.61015-.48051-2.43464-.9672-4.90321-1.42431-7.223-1.29923-6.59332-2.3593-11.98562-2.3593-11.98562Z" style="fill: #f7a491"/>
          <path d="M1311.87833,626.31485c-.18915-1.02245-.29454-1.62346-.29454-1.62346l-18.20458-.45476s1.06007,5.3923,2.3593,11.98562c.45465,2.30692.93845,4.761,1.41649,7.18245a17.03612,17.03612,0,0,0,8.69181-4.36763,23.0202,23.0202,0,0,0,6.58391-9.81435C1312.20625,628.06937,1312.01916,627.07538,1311.87833,626.31485Z" style="fill: #f47458"/>
          <path d="M1299.33138,583.21821s8.58031-.99364,13.95886,5.9785,11.17548,28.5333-2.18537,40.25571-26.5623-1.54669-28.51961-15.61546S1279.867,582.71037,1299.33138,583.21821Z" style="fill: #f7a491"/>
          <path d="M1278.63261,613.62918c1.59471,3.10719,4.27158,4.82774,5.979,3.84291s1.79866-4.302.204-7.40939-4.2717-4.82791-5.97909-3.84309S1277.03784,610.52188,1278.63261,613.62918Z" style="fill: #f7a491"/>
          <path d="M1298.37153,580.91317s11.46326,20.50362,19.66392,21.451,9.27736,11.84226,9.27736,11.84226-2.93191-25.10448-11.0504-29.9458C1308.14374,579.41933,1298.37153,580.91317,1298.37153,580.91317Z" style="fill: #184655"/>
          <path d="M1374.17618,1081.807c10.63666,1.94373,17.71419-4.29257,21.39681-8.96131,2.70339,5.28879,4.02248,13.18087,2.0339,17.52551-1.75141,3.82681-6.86986,3.71678-10.9,3.867-4.26106.1587-7.5581-2.21382-9.67212-5.93276A35.60174,35.60174,0,0,1,1374.17618,1081.807Z" style="fill: #184655"/>
          <path d="M1283.48268,1080.29516c11.70937,3.01132,20.36485.96413,25.207-.99259,1.24863,3.54691,2.90393,7.99664,2.026,10.56254-1.07482,3.14157-2.6054,3.852-3.95718,3.88759-10.69562.28131-39.17778.66442-47.333.77116a1.336,1.336,0,0,1-1.035-2.19524C1260.413,1089.90773,1282.61012,1080.8298,1283.48268,1080.29516Z" style="fill: #184655"/>
          <path d="M1315.885,607.51632c-.667,3.64112.67436,6.98031,2.996,7.45817,2.3215.47793,4.7441-2.08644,5.411-5.72763s-.67436-6.98025-2.99586-7.45818S1316.552,603.87513,1315.885,607.51632Z" style="fill: #f7a491"/>
          <path d="M1355.50884,617.91316s-28.737,30.97142-33.00931,43.4533,4.165,30.33732,15.81689,31.11748,37.58219-54.97134,37.58219-54.97134Z" style="fill: #66ccb2"/>
        </g>
        <path d="M1087.49475,330.53a18.52259,18.52259,0,0,1,10.74181-12.80611c8.1105-3.38109,16.73642,1.57244,20.27263,10.05476,4.0933,9.8183,1.31721,24.61169-14.25381,42.9548-23.98964-1.85045-36.45171-10.291-40.545-20.10945-3.53632-8.48257-.98341-18.09619,7.12691-21.4774A18.52209,18.52209,0,0,1,1087.49475,330.53Z" style="fill: #f47458"/>
        <g>
          <path d="M1510.4769,445.8927a2.7882,2.7882,0,0,1,4.1475-1.49367c2.24115,1.571,4.50822,3.10478,6.76624,4.65129,4.98667,3.41524,5.077,3.7039,5.68266,3.48642,1.44606-.51918.96626-3.21951.69711-4.19623-.59707-2.16662-1.74612-4.1994-1.89436-6.47452-.28924-4.43986,3.26595-7.44536,7.40287-5.23419,3.787,2.0242,7.4868,4.28122,11.155,6.55335-.67589-4.7799-1.48721-9.54592-2.09362-14.33187a1.90847,1.90847,0,0,1,2.855-1.99569c3.35523,1.7078,13.28814,6.76354,16.56367,8.43072.84622.43084,4.55536,2.90746,5.3394,2.17408.70387-.65849.00564-3.9523-.05666-4.70142-.3448-4.14333-.40933-5.61078-1.22218-19.11441a2.23358,2.23358,0,0,1,3.42888-1.7855c12.47419,10.13864,13.7616,8.574,15.38564,12.01912a1.05893,1.05893,0,0,1-.9622,1.523c-1.98064.18233-2.466.08529-8.47351-3.81152q-2.33025-1.51153-4.58016-3.13675c1.29841,16.37957,2.0162,20.47641-1.75388,22.45952-2.61657,1.37623-3.25837.59719-22.03327-9.02073.96773,4.97527,1.62868,9.98146,2.38822,15.00869a2.17349,2.17349,0,0,1-3.25525,2.27554c-13.527-7.32135-13.58063-8.06336-14.947-8.38582-.03756-.00881-.18027-.87138-.14442.407.0609,2.1715,2.948,6.32929,2.21752,10.43306-.64262,3.61009-3.81716,6.89649-7.717,5.83884-2.26549-.61441-3.02607-1.51942-10.43029-6.29708a56.52317,56.52317,0,0,1-4.90451,12.414,8.77727,8.77727,0,0,1-3.56189,3.89981,2.32309,2.32309,0,0,1-3.37469-2.13189C1503.66587,460.55984,1507.51213,458.69052,1510.4769,445.8927Z" style="fill: #f47458"/>
          <path d="M1445.4073,397.58974a76.25014,76.25014,0,0,0,13.46877-1.44577c.87268-.17392,2.53222-.30312,2.93009-1.2873.958-2.36952-3.2569-4.93853-6.45354-12.85653-1.387-3.4357-4.55578-10.4163-.0415-12.80916,2.31333-1.22623,5.4974-1.239,8.04026-1.668,1.9308-.32568,3.84749-.72814,5.771-1.0898-6.03769-12.71094-6.68725-11.813-5.88763-15.06777a1.72276,1.72276,0,0,1,2.1531-1.12113c3.03377,1.26373,2.19254,1.04678,9.96624,16.99569a2.67985,2.67985,0,0,1-1.76475,3.81287c-2.613.43814-14.55975,1.79044-15.99811,2.192.117.12079.106.78045.13454.9187,1.14506,5.54407,3.95812,9.88536,6.90284,14.58684,2.41349,3.85332,3.40643,9.4795-1.66195,11.69091-2.74993,1.1999-8.72425,1.92963-13.359,2.289,3.98193,7.68595,8.02222,15.34632,11.95265,23.05313.76923,1.50842-.01787,4.00249-1.94462,4.20146-5.3508.55245-10.66722,1.28565-15.98464,2.0604a49.77059,49.77059,0,0,0,9.11072,12.21979c2.689,2.64584-.873,7.21508-7.199.078a48.14863,48.14863,0,0,1-8.858-13.25922,2.96558,2.96558,0,0,1,1.94967-4.21251c5.2393-.92135,10.53045-1.6047,15.82348-2.18331-3.87113-7.70364-7.66667-15.45312-11.54156-23.15552A2.73049,2.73049,0,0,1,1445.4073,397.58974Z" style="fill: #66ccb2"/>
          <path d="M1314.27359,376.01812a2.73706,2.73706,0,0,1-3.16255-1.99047c-2.43077-6.95838-4.23061-13.95733-4.18753-21.39928.02245-3.87118,5.72128-3.52892,5.9236.21513a77.18831,77.18831,0,0,0,2.62027,17.55331,59.12761,59.12761,0,0,0,12.2406-4.0417c1.49167-.68658,3.75492-.01957,4.00455,1.85339.62169,4.66534,2.4521,22.408,2.29187,22.59631a.90516.90516,0,0,1,.46024-.07107c1.88883.00858,7.88684-2.49918,10.75274-2.8746,3.21646-.42138,5.07232,3.69121,5.74157,6.267,1.35759,5.22537-1.45417,11.80347,1.40356,16.61269,2.74835,4.625,9.50218-2.37393,16.13418.5491,5.11052,2.25238,4.58146,7.82843,4.34728,16.51659-.05742,2.13235-.1366,4.21363-1.9576,5.6156a1.401,1.401,0,0,1-1.66377.13537c-2.7105-2.10625-2.16092-5.32976-2.15328-13.2333.001-1.00681.30247-2.7604-.54487-3.50047-2.82535-2.46757-8.62352,2.95836-14.64269.5233-4.68914-1.897-6.3334-7.10263-6.52807-11.74222-.15265-3.63525,1.17021-8.39775-.67048-11.7796-2.99721.75142-6.00824,1.59165-9.03731,2.10414-3.30944.56-5.88769-.74131-6.70817-4.08479-.90724-3.69661-1.0312-7.69111-1.466-11.466-.29272-2.54074-.596-5.07972-.86686-7.62228A66.63929,66.63929,0,0,1,1314.27359,376.01812Z" style="fill: #07345a"/>
          <path d="M1568.37532,516.40855c15.7506,13.68937,5.41229,23.83411-.77951,20.18147-2.6526-1.5648-3.43811-5.02559-1.115-7.23818,1.06359-1.01292,3.25172-.16728,3.03971,1.4135-.17552,1.30864,1.28059,1.35895,1.59958-.05255.42967-1.90123-1.23751-3.83627-2.30616-5.22655-2.49448-3.24525-5.68454-7.48868-10.25107-7.32533-6.81409.24381-12.70025,8.254-7.09846,17.65065,8.07993,13.55341,31.64431,8.77416,32.9476-7.30447a22.11949,22.11949,0,0,0-12.12281-21.09329c-1.51454-.773-.24828-2.83857,1.19-2.52887,10.9,2.34736,17.01756,14.73691,15.25151,25.23826-1.81125,10.77132-11.62155,17.67393-22.19914,17.93825-11.09219.2772-21.67813-7.45012-22.45594-18.97392C1543.2227,516.449,1557.36266,506.83707,1568.37532,516.40855Z" style="fill: #3c8f7c"/>
          <path d="M1281.91619,432.20387c2.25584,2.2877,4.28616,7.45894,1.05548,9.81618a2.971,2.971,0,0,1-4.55495-.81555c-.93111-1.76675-.22683-3.684-2.19983-4.83127-1.69164-.98371-3.68856.1289-4.82227,1.489-3.45674,4.14691-.96126,11.28293,1.98722,15.0151,4.68256,5.92736,14.21037,5.45684,17.473-2.37181,1.02045-2.44852.88749-5.067,1.04143-7.661.08511-1.43378,2.14781-2.47292,3.12988-1.14277,3.7779,5.11658,1.33737,12.6541-2.84557,16.79385a16.132,16.132,0,0,1-17.14922,3.07856c-6.292-2.629-10.36034-9.42031-11.40647-15.98277C1261.451,431.95506,1274.60825,424.79271,1281.91619,432.20387Z" style="fill: #f7cc7f"/>
        </g>
        <path d="M764.511,831.07054l.38717-20.12762c0-14.92776-11.392-27.02917-25.44457-27.02917h0c-35.41268.00006-64.12019,30.49566-64.12019,68.11389V879.5302a31.64645,31.64645,0,0,1-15.78228,27.76031c-8.52212,4.76744-13.73351,14.29513-13.73351,24.52663V946.3167a52.8416,52.8416,0,0,0,18.46056,40.17683,32.05522,32.05522,0,0,1,11.05523,24.46586v20.53c0,22.6971,17.32084,41.09676,38.6872,41.09676h12.19023c21.36643,0,38.68733-18.39966,38.68733-41.09676h0c-3.50715-28.66949,4.99309-45.21488,14.7987-54.67245a75.31788,75.31788,0,0,0,22.85921-54.152v-2.90128a74.78985,74.78985,0,0,0-25.33425-56.17835C770.22371,857.44839,764.511,847.4289,764.511,831.07054Z" style="fill: #96d9c9"/>
        <g>
          <path d="M460.22947,856.67675A726.65447,726.65447,0,0,1,556.967,1088.25159l3.08838-.828a731.2842,731.2842,0,0,0-96.36323-229.622c-10.4538-16.336-21.742-35.71486-41.31471-42.08753-.37748-.1229-.5209.45107-.16053.58678C440.09415,823.0371,450.449,841.40173,460.22947,856.67675Z" style="fill: #3c8f7c"/>
          <path d="M546.10534,1091.16364A908.035,908.035,0,0,0,361.76916,904.38987c-.72655-.54934-1.707.71709-.97583,1.27925a907.0822,907.0822,0,0,1,181.484,186.52078Z" style="fill: #3c8f7c"/>
          <path d="M456.11207,813.039c-1.15987,1.70545-5.59961,6.15413-6.904,11.999-1.752,5.5446-.36865,12.48524-.22,12.242.33463.138-5.137-4.48835-6.84676-11.84678-2.21294-7.05761-.66378-16.84716,2.08885-20.09089,4.75421-7.33192,13.0605-8.07493,14.67355-4.51962C460.61565,804.354,458.44432,809.159,456.11207,813.039Z" style="fill: #3c8f7c"/>
          <path d="M445.33346,875.84817c1.68223-1.19326,6.04256-5.72,11.86054-7.13925,5.50909-1.861,12.47559-.61476,12.2353-.46129.1446.33186-4.58868-5.04769-11.97944-6.61189-7.09987-2.0734-16.857-.33163-20.04574,2.48443-7.23676,4.89786-7.81585,13.21726-4.22938,14.75983C436.73892,880.522,441.50024,878.25636,445.33346,875.84817Z" style="fill: #3c8f7c"/>
          <path d="M461.59947,903.37607c1.68229-1.1932,6.04257-5.71988,11.86048-7.13913,5.509-1.86109,12.47566-.61482,12.23537-.46135.1446.33186-4.58875-5.04763-11.97939-6.61195-7.1-2.07334-16.857-.33151-20.04586,2.48455-7.23676,4.89786-7.81584,13.2172-4.22937,14.75983C453.00494,908.05,457.7662,905.78438,461.59947,903.37607Z" style="fill: #3c8f7c"/>
          <path d="M403.57961,967.22707c1.68229-1.19319,6.04257-5.71987,11.8606-7.13925,5.509-1.861,12.4756-.6147,12.23537-.46123.14453.33181-4.58881-5.04763-11.97951-6.61189-7.09981-2.07334-16.857-.33162-20.0458,2.48449-7.23676,4.89787-7.8159,13.2172-4.22944,14.75983C394.98508,971.901,399.74634,969.63545,403.57961,967.22707Z" style="fill: #3c8f7c"/>
          <path d="M373.9374,941.11273c1.68223-1.19326,6.04251-5.71982,11.86043-7.13913,5.509-1.8611,12.47559-.61471,12.23536-.46129.1446.33186-4.58869-5.04763-11.97939-6.61189-7.09992-2.0734-16.857-.33163-20.0458,2.48449-7.23682,4.8978-7.81595,13.21719-4.22943,14.75971C365.34281,945.7867,370.10407,943.521,373.9374,941.11273Z" style="fill: #3c8f7c"/>
          <path d="M478.87136,844.188c-1.41414,1.50131-6.4998,5.1944-8.70933,10.76045-2.60428,5.199-2.33249,12.2711-2.14728,12.05433.30865.189-4.36521-5.24213-4.89345-12.77807-1.07253-7.31828,2.00057-16.74118,5.23019-19.51027,5.85071-6.49075,14.17028-5.91484,15.2026-2.14969C484.68792,836.32171,481.78622,840.72425,478.87136,844.188Z" style="fill: #3c8f7c"/>
          <path d="M502.79046,875.40674c-2.01309,1.06765-9.0453,3.00356-12.58245,8.266-4.00344,4.68326-4.51181,12.69289-4.24584,12.53061.37665.34361-5.01264-7.72674-4.77966-16.36442-.4982-8.62868,4.626-17.82451,9.1433-19.527,8.36276-4.72947,19.06174-.511,19.93993,4.13492C511.27637,869.12724,506.98487,872.7937,502.79046,875.40674Z" style="fill: #3c8f7c"/>
          <path d="M527.96524,922.69043c-2.16415.714-9.42172,1.43971-13.7934,6.0324-4.7341,3.94325-6.58226,11.75327-6.29266,11.638.31334.4021-3.6419-8.4597-1.95961-16.93509.96008-8.5896,7.55769-16.79273,12.297-17.71125,9.03906-3.25567,18.87622,2.702,18.96051,7.42943C537.38625,917.92759,532.53929,920.82011,527.96524,922.69043Z" style="fill: #3c8f7c"/>
          <path d="M453.47111,955.62762c-1.57672.98313-7.18674,2.95831-9.76428,7.44037-2.98986,4.03741-2.94742,10.58165-2.74017,10.43453.3258.258-4.51751-5.99984-4.81981-13.03922-.89654-6.99048,2.748-14.76241,6.32558-16.4045,6.53331-4.32313,15.47634-1.5009,16.45523,2.22816C460.01623,950.03653,456.73412,953.26328,453.47111,955.62762Z" style="fill: #3c8f7c"/>
          <path d="M414.68785,824.10968c.943-.77951,3.32425-3.648,6.70376-4.74227a14.66155,14.66155,0,0,1,7.21778-.80826,15.8253,15.8253,0,0,0-7.37583-3.38709c-4.29075-.91588-9.98646.54141-11.74957,2.34678-4.06668,3.214-4.04523,8.16081-1.8561,8.91634C409.80821,827.25061,412.52558,825.702,414.68785,824.10968Z" style="fill: #3c8f7c"/>
          <path d="M423.72057,804.01627c-.04173,1.22276-.85986,4.86007.33674,8.20466a14.65778,14.65778,0,0,0,3.76627,6.21,15.82377,15.82377,0,0,1-7.18568-3.774c-3.34477-2.83928-5.66786-8.24-5.31437-10.73858.063-5.18306,3.994-8.186,5.92878-6.91354C423.22925,798.234,423.66174,801.33158,423.72057,804.01627Z" style="fill: #3c8f7c"/>
          <path d="M352.59055,914.5124c.94286-.77945,3.32414-3.648,6.70382-4.74222a14.66132,14.66132,0,0,1,7.21772-.80825,15.82662,15.82662,0,0,0-7.37589-3.38709c-4.29075-.91582-9.9864.5414-11.74957,2.34683-4.06668,3.214-4.04523,8.16075-1.85609,8.91635C347.71079,917.65344,350.42828,916.10488,352.59055,914.5124Z" style="fill: #3c8f7c"/>
          <path d="M363.48707,894.24618c-.14166,1.21524-1.255,4.7732-.33645,8.20472a14.65982,14.65982,0,0,0,3.245,6.49768,15.82554,15.82554,0,0,1-6.85235-4.34993c-3.101-3.10366-4.97387-8.67659-4.41683-11.13786.48722-5.16048,4.65106-7.8313,6.47512-6.40464C363.47108,888.443,363.64836,891.56572,363.48707,894.24618Z" style="fill: #3c8f7c"/>
        </g>
        <g>
          <path d="M371.07068,1025.20814c46.00556,5.04275,88.85291,25.35082,130.10044,45.15363,27.81474,13.35386,26.41194,17.1581,32.07792,19.14656a1.13952,1.13952,0,0,0,1.3891-1.55921c-2.18008-4.317-7.89413-7.23752-11.87041-9.72049a154.215,154.215,0,0,0-14.37037-7.82724c-10.49865-5.09712-21.27114-9.68434-31.97328-14.33433-21.77141-9.45946-43.8959-18.35705-66.89671-24.37987a235.05273,235.05273,0,0,0-38.42619-6.85358.188.188,0,0,0-.0305.37453Z" style="fill: #3c8f7c"/>
          <path d="M412.53469,1010.94546c-.2993,1.88695-2.26537,7.36731-1.05265,12.78089.719,5.33852,4.61684,10.61009,4.6454,10.34759.335-.01634-6.07642-1.73525-10.41248-7.2283-4.6393-5.04234-7.20326-13.8587-6.17576-17.66341,1.0921-8.021,7.761-11.9209,10.51564-9.5773C412.883,1001.88922,412.95872,1006.77321,412.53469,1010.94546Z" style="fill: #3c8f7c"/>
          <path d="M453.06413,1025.457c-.29929,1.88707-2.26542,7.36742-1.05266,12.78089.719,5.33852,4.61679,10.61015,4.64547,10.34759.33492-.01634-6.07648-1.73519-10.4126-7.22818-4.63924-5.0424-7.20314-13.85876-6.1757-17.66353,1.09216-8.021,7.761-11.92084,10.51564-9.5773C453.41239,1016.40071,453.48821,1021.28476,453.06413,1025.457Z" style="fill: #3c8f7c"/>
          <path d="M494.24577,1043.81306c-.2993,1.88707-2.26542,7.36736-1.05271,12.78088.719,5.33858,4.61684,10.61016,4.64552,10.34759.33486-.01634-6.07654-1.73518-10.4126-7.22817-4.63923-5.0424-7.20319-13.85876-6.17575-17.66353,1.09209-8.02092,7.76106-11.92084,10.51569-9.57724C494.59391,1034.75688,494.6698,1039.64087,494.24577,1043.81306Z" style="fill: #3c8f7c"/>
          <path d="M400.43551,1048.81231c.83259-1.55768,2.44235-6.69347,6.35732-10.006a21.16474,21.16474,0,0,1,9.19842-5.03282c.23764.199-5.44637-2.11254-11.70742-.48456-6.233,1.1266-13.0428,6.19274-14.4091,9.57-3.67169,6.52038-.93375,13.11622,2.40415,12.9266C395.63781,1055.68036,398.41942,1052.12363,400.43551,1048.81231Z" style="fill: #3c8f7c"/>
          <path d="M442.5927,1063.7339c.83259-1.55762,2.44234-6.69348,6.35726-10.006a21.16417,21.16417,0,0,1,9.19848-5.03275c.23764.199-5.44638-2.11255-11.70743-.48469-6.23288,1.12672-13.0428,6.19275-14.4091,9.57-3.67169,6.52043-.93374,13.11622,2.40415,12.9266C437.795,1070.60194,440.57666,1067.04516,442.5927,1063.7339Z" style="fill: #3c8f7c"/>
          <path d="M368.32951,1033.452c.72861-.8681,2.41783-3.88048,5.31377-5.44327a13.581,13.581,0,0,1,6.44084-1.945,14.66009,14.66009,0,0,0-7.28736-1.851c-4.06269-.116-9.00816,2.16556-10.31227,4.1057-3.167,3.60927-2.31909,8.11268-.198,8.4346C364.40942,1037.13081,366.626,1035.26484,368.32951,1033.452Z" style="fill: #3c8f7c"/>
          <path d="M373.19457,1013.63215c.16681,1.121.03044,4.572,1.6807,7.419a13.5809,13.5809,0,0,0,4.47142,5.02741,14.6602,14.6602,0,0,1-7.17892-2.23539c-3.52292-2.02667-6.54382-6.55834-6.64016-8.89413-.81055-4.73287,2.26819-8.12713,4.24413-7.29177C371.77872,1008.446,372.69148,1011.19591,373.19457,1013.63215Z" style="fill: #3c8f7c"/>
        </g>
        <path d="M1067.83053,185.62856l-9.64225,10.75233,3.39114,14.03851a1.4077,1.4077,0,0,1-1.93826,1.61769l-13.20556-5.84766-12.30355,7.56327a1.40766,1.40766,0,0,1-2.13747-1.34349l1.48062-14.36619-10.995-9.36429a1.40761,1.40761,0,0,1,.61717-2.448l14.12068-3.03119,5.50821-13.35068a1.40772,1.40772,0,0,1,2.519-.16946l7.2464,12.49294,14.39934,1.1129A1.40771,1.40771,0,0,1,1067.83053,185.62856Z" style="fill: #66ccb2"/>
        <path d="M915.52977,262.3341l7.93163-12.88269-6.36931-2.58307a2.72324,2.72324,0,0,1-1.50031-3.54708h0A2.72317,2.72317,0,0,1,919.139,241.821l7.34544,2.9787,7.091-11.56924-6.80321-2.75875a2.72348,2.72348,0,0,1-1.50025-3.5472h0a2.72353,2.72353,0,0,1,3.54725-1.50019l7.77917,3.15468,8.2354-13.24853a2.72343,2.72343,0,0,1,3.3363-1.086l1.18785.48163a2.72346,2.72346,0,0,1,1.29864,3.94654l-7.65943,12.50133,11.2791,4.574,8.23523-13.24859a2.7235,2.7235,0,0,1,3.33648-1.086l1.29629.52565a2.72343,2.72343,0,0,1,1.29859,3.94654l-7.65932,12.5011,6.36931,2.58312a2.72329,2.72329,0,0,1,1.50031,3.5472h0a2.72343,2.72343,0,0,1-3.54714,1.50032l-7.34556-2.97882-6.98266,11.613,6.80327,2.75892a2.72337,2.72337,0,0,1,1.50031,3.5472h0a2.72339,2.72339,0,0,1-3.5472,1.50025L947.755,259.303l-8.41191,13.66267a2.72317,2.72317,0,0,1-3.34247,1.0961l-1.389-.56333A2.72315,2.72315,0,0,1,933.316,269.547l7.93164-12.88275-11.279-4.57393-8.41191,13.66256a2.72325,2.72325,0,0,1-3.34242,1.09591l-1.38892-.56315A2.72345,2.72345,0,0,1,915.52977,262.3341Zm28.741-10.32156,7.091-11.56894-11.279-4.574-7.091,11.56906Z" style="fill: #07345a"/>
        <g>
          <path d="M796.24337,867.72821a3.61635,3.61635,0,0,0-4.78553.7895,13.28125,13.28125,0,0,0-2.38645,3.99639c-1.004,3.17648-.17739,7.86386,1.25291,8.82041s5.34852-8.71585,6.589-11.41171A1.60866,1.60866,0,0,0,796.24337,867.72821Z" style="fill: #f48c7f"/>
          <g>
            <path d="M794.02023,458.83124h414.49584a36.49,36.49,0,0,1,36.49,36.49v561.37754a36.49,36.49,0,0,1-36.49,36.49H794.02014a36.49,36.49,0,0,1-36.49-36.49V495.32133a36.49009,36.49009,0,0,1,36.49009-36.49009Z" transform="translate(-1.39615 1.80478) rotate(-0.1032)" style="fill: #184655"/>
            <rect x="782.90071" y="476.5298" width="436.72859" height="595.45711" transform="translate(-1.39296 1.80472) rotate(-0.1032)" style="fill: #fff"/>
            <path d="M1095.362,450.2498a4.84934,4.84934,0,0,0-4.85807-4.84061l-183.37339.33022a4.84946,4.84946,0,0,0-4.84061,4.85812l.03432,19.05916,193.07208-.34779Z" style="fill: #86b1f2"/>
            <path d="M998.77543,422.40121a28.92,28.92,0,1,0,28.972,28.86781A28.92,28.92,0,0,0,998.77543,422.40121Zm.08552,47.46673a18.54682,18.54682,0,1,1,18.5134-18.58017A18.54676,18.54676,0,0,1,998.861,469.86794Z" style="fill: #86b1f2"/>
            <g>
              <path d="M1092.3922,445.78684a4.85087,4.85087,0,0,1,2.96976,4.463l.03433,19.0591-193.07208.34779a23.90841,23.90841,0,0,0,23.95149,23.86538l145.25515-.26163a23.90853,23.90853,0,0,0,23.86544-23.95154l-.03433-19.0591A4.85062,4.85062,0,0,0,1092.3922,445.78684Z" style="fill: #9bc1f9"/>
              <path d="M907.1305,445.73941h0a4.845,4.845,0,0,0-4.01743,2.14534A4.845,4.845,0,0,1,907.1305,445.73941Z" style="fill: #9bc1f9"/>
              <path d="M902.50531,449.15512a4.81915,4.81915,0,0,1,.36571-.87015A4.81915,4.81915,0,0,0,902.50531,449.15512Z" style="fill: #9bc1f9"/>
            </g>
            <path d="M1169.01221,651.795l-62.08343.11179-.11179-62.0829,62.08337-.11179Zm-59.5505-2.43024,57.00847-.10263-.10269-57.008-57.00852.10269Z" style="fill: #184655"/>
            <path d="M1169.19825,755.09773l-62.08337.11179-.11186-62.08313,62.08343-.1118Zm-59.55051-2.43018,57.00853-.10275-.10274-57.00823-57.00847.10274Z" style="fill: #184655"/>
            <path d="M1169.38428,858.40042l-62.08337.11179-.1118-62.0829,62.08337-.11179Zm-59.5505-2.43024,57.00852-.10263-.10268-57.00806-57.00847.10275Z" style="fill: #184655"/>
            <path d="M1169.57043,961.70311l-62.08343.11179-.1118-62.08337,62.08338-.11185Zm-59.5505-2.43024,57.00846-.10269-.10268-57.00847-57.00853.10269Z" style="fill: #184655"/>
            <rect x="815.11875" y="591.37869" width="265.7002" height="8.9357" transform="translate(-1.07155 1.70821) rotate(-0.10319)" style="fill: #9bc1f9"/>
            <rect x="815.1643" y="616.68369" width="265.7002" height="8.93564" transform="translate(-1.11726 1.70854) rotate(-0.1032)" style="fill: #9bc1f9"/>
            <rect x="815.20988" y="641.98864" width="265.7002" height="8.9357" transform="translate(-1.16298 1.70888) rotate(-0.10321)" style="fill: #9bc1f9"/>
            <rect x="815.31116" y="698.20974" width="265.7002" height="8.9357" transform="translate(-1.2641 1.70894) rotate(-0.1032)" style="fill: #9bc1f9"/>
            <rect x="815.35674" y="723.51472" width="265.70017" height="8.9357" transform="translate(-1.30968 1.70906) rotate(-0.1032)" style="fill: #9bc1f9"/>
            <rect x="815.40229" y="748.81969" width="265.70023" height="8.9357" transform="translate(-1.35526 1.70919) rotate(-0.1032)" style="fill: #9bc1f9"/>
            <rect x="815.49349" y="799.42966" width="265.7002" height="8.93567" transform="translate(-1.44642 1.70943) rotate(-0.1032)" style="fill: #9bc1f9"/>
            <rect x="815.53907" y="824.73463" width="265.70017" height="8.93567" transform="translate(-1.492 1.70956) rotate(-0.1032)" style="fill: #9bc1f9"/>
            <rect x="815.58462" y="850.03961" width="265.70023" height="8.9357" transform="translate(-1.53776 1.70989) rotate(-0.10321)" style="fill: #9bc1f9"/>
            <rect x="815.67579" y="900.64955" width="265.7002" height="8.9357" transform="translate(-1.62853 1.70971) rotate(-0.10319)" style="fill: #9bc1f9"/>
            <rect x="815.72134" y="925.95455" width="265.70023" height="8.93567" transform="translate(-1.67411 1.70984) rotate(-0.10319)" style="fill: #9bc1f9"/>
            <rect x="815.76695" y="951.25952" width="265.7002" height="8.93567" transform="translate(-1.7201 1.71038) rotate(-0.10321)" style="fill: #9bc1f9"/>
            <rect x="815.88477" y="1016.64584" width="306.52506" height="8.93564" transform="translate(-1.83762 1.74725) rotate(-0.1032)" style="fill: #9bc1f9"/>
            <rect x="815.92369" y="1038.24435" width="366.97306" height="8.93567" transform="translate(-1.87642 1.80174) rotate(-0.1032)" style="fill: #9bc1f9"/>
            <polygon points="1137.664 641.647 1118.384 608.569 1125.282 604.548 1136.474 623.748 1154.743 579.921 1162.113 582.993 1137.664 641.647" style="fill: #f47458"/>
            <polygon points="1137.852 746.303 1118.572 713.225 1125.471 709.204 1136.662 728.404 1154.931 684.576 1162.302 687.649 1137.852 746.303" style="fill: #f47458"/>
            <polygon points="1138.221 950.918 1118.941 917.84 1125.84 913.819 1137.031 933.019 1155.3 889.191 1162.67 892.264 1138.221 950.918" style="fill: #f47458"/>
            <polygon points="1159.7 811.754 1154.141 806.143 1138.277 821.864 1122.356 806.201 1116.817 811.831 1132.666 827.425 1116.873 843.075 1122.433 848.686 1138.297 832.965 1154.217 848.629 1159.756 842.998 1143.907 827.404 1159.7 811.754" style="fill: #f47458"/>
            <g>
              <path d="M881.73828,546.5708V515.97314h10.55908a20.008,20.008,0,0,1,5.13135.57129,9.78671,9.78671,0,0,1,3.49121,1.6294,6.31834,6.31834,0,0,1,1.99951,2.56055,8.622,8.622,0,0,1,.63477,3.38574,6.67072,6.67072,0,0,1-.31738,2.063,5.967,5.967,0,0,1-.98389,1.84082,7.36944,7.36944,0,0,1-1.69287,1.55517,10.21753,10.21753,0,0,1-2.44385,1.18506q6.30542,1.418,6.30567,6.81348a8.68368,8.68368,0,0,1-.74073,3.59716,7.9336,7.9336,0,0,1-2.1582,2.8462,10.30364,10.30364,0,0,1-3.49121,1.87255,15.2497,15.2497,0,0,1-4.74024.67725Zm5.6919-17.35107H891.98a7.6215,7.6215,0,0,0,4.40137-1.05811,3.8284,3.8284,0,0,0,1.50195-3.36474,3.98853,3.98853,0,0,0-1.354-3.40674,7.08514,7.08514,0,0,0-4.23194-1.01563h-4.86718Zm0,3.93554V542.127H893.207a7.98552,7.98552,0,0,0,2.65576-.38086,4.61411,4.61411,0,0,0,1.71387-1.01562,3.71713,3.71713,0,0,0,.93115-1.481,5.58763,5.58763,0,0,0,.28565-1.79883,4.78558,4.78558,0,0,0-.31739-1.78808,3.36074,3.36074,0,0,0-.99462-1.354,4.65926,4.65926,0,0,0-1.73536-.85693,9.59,9.59,0,0,0-2.56-.29639Z"/>
              <path d="M915.00146,541.87305h12.252v4.69775H909.30957V515.97314h5.69189Z"/>
              <path d="M958.8457,531.272a16.96287,16.96287,0,0,1-1.12158,6.23194,14.75481,14.75481,0,0,1-3.15283,4.96191,14.2723,14.2723,0,0,1-4.8877,3.269,17.65988,17.65988,0,0,1-12.66455,0,14.36234,14.36234,0,0,1-4.90918-3.269,14.67566,14.67566,0,0,1-3.16357-4.96191,17.88028,17.88028,0,0,1,0-12.46338,14.68257,14.68257,0,0,1,3.16357-4.9624,14.36236,14.36236,0,0,1,4.90918-3.269,16.57192,16.57192,0,0,1,6.33741-1.17431,16.36168,16.36168,0,0,1,6.32714,1.18505,14.48345,14.48345,0,0,1,4.8877,3.269,14.643,14.643,0,0,1,3.15283,4.95166A16.9621,16.9621,0,0,1,958.8457,531.272Zm-5.84033,0a14.24759,14.24759,0,0,0-.6665-4.51758,9.55539,9.55539,0,0,0-1.915-3.39648,8.2486,8.2486,0,0,0-3.03613-2.13672,11.368,11.368,0,0,0-8.07276,0,8.31989,8.31989,0,0,0-3.05762,2.13672,9.593,9.593,0,0,0-1.936,3.39648,15.40583,15.40583,0,0,0,0,9.03516,9.47624,9.47624,0,0,0,1.936,3.38574,8.37065,8.37065,0,0,0,3.05762,2.12647,11.368,11.368,0,0,0,8.07276,0,8.29847,8.29847,0,0,0,3.03613-2.12647,9.43924,9.43924,0,0,0,1.915-3.38574A14.24544,14.24544,0,0,0,953.00537,531.272Z"/>
              <path d="M992.68066,531.272a16.96287,16.96287,0,0,1-1.12158,6.23194,14.75481,14.75481,0,0,1-3.15283,4.96191,14.2723,14.2723,0,0,1-4.8877,3.269,17.65988,17.65988,0,0,1-12.66455,0,14.36234,14.36234,0,0,1-4.90918-3.269,14.67566,14.67566,0,0,1-3.16357-4.96191,17.88028,17.88028,0,0,1,0-12.46338,14.68257,14.68257,0,0,1,3.16357-4.9624,14.36236,14.36236,0,0,1,4.90918-3.269,16.57192,16.57192,0,0,1,6.33741-1.17431,16.36168,16.36168,0,0,1,6.32714,1.18505,14.48345,14.48345,0,0,1,4.8877,3.269,14.643,14.643,0,0,1,3.15283,4.95166A16.9621,16.9621,0,0,1,992.68066,531.272Zm-5.84033,0a14.24759,14.24759,0,0,0-.6665-4.51758,9.55539,9.55539,0,0,0-1.915-3.39648,8.2486,8.2486,0,0,0-3.03613-2.13672,11.368,11.368,0,0,0-8.07276,0,8.31977,8.31977,0,0,0-3.05761,2.13672,9.59288,9.59288,0,0,0-1.936,3.39648,15.40583,15.40583,0,0,0,0,9.03516,9.47611,9.47611,0,0,0,1.936,3.38574,8.37053,8.37053,0,0,0,3.05761,2.12647,11.368,11.368,0,0,0,8.07276,0,8.29847,8.29847,0,0,0,3.03613-2.12647,9.43924,9.43924,0,0,0,1.915-3.38574A14.24544,14.24544,0,0,0,986.84033,531.272Z"/>
              <path d="M1024.33594,531.272a16.53638,16.53638,0,0,1-1.1211,6.17871,13.86883,13.86883,0,0,1-8.041,7.99854,17.169,17.169,0,0,1-6.32715,1.12158H997.1665V515.97314h11.68018a17.04058,17.04058,0,0,1,6.32715,1.13233,14.31981,14.31981,0,0,1,4.88867,3.15283,14.09682,14.09682,0,0,1,3.15234,4.835A16.54009,16.54009,0,0,1,1024.33594,531.272Zm-5.81836,0a14.021,14.021,0,0,0-.67774-4.51758,9.575,9.575,0,0,0-1.9248-3.38574,8.31372,8.31372,0,0,0-3.03711-2.12646,10.45217,10.45217,0,0,0-4.03125-.74073h-5.9458v21.541h5.9458a10.44305,10.44305,0,0,0,4.03125-.74072,8.30212,8.30212,0,0,0,3.03711-2.12647,9.56632,9.56632,0,0,0,1.9248-3.38574A14.0189,14.0189,0,0,0,1018.51758,531.272Z"/>
              <path d="M1058.53027,515.97314v4.67627h-9.2041V546.5708h-5.69238V520.64941h-9.24707v-4.67627Z"/>
              <path d="M1081.44629,515.97314v4.52832h-13.56348v8.48536h10.68555v4.37988h-10.68555v8.65478h13.56348v4.54932h-19.29785V515.97314Z"/>
              <path d="M1102.77539,521.53857a1.57443,1.57443,0,0,1-.53906.65577,1.35918,1.35918,0,0,1-.73047.19043,1.8497,1.8497,0,0,1-.95215-.32813q-.52881-.32739-1.248-.73a10.24988,10.24988,0,0,0-1.68261-.73,7.08049,7.08049,0,0,0-2.27442-.32813,6.69172,6.69172,0,0,0-2.06347.28565,4.36572,4.36572,0,0,0-1.48047.79394,3.1663,3.1663,0,0,0-.89942,1.21631,3.984,3.984,0,0,0-.29687,1.55567,2.70252,2.70252,0,0,0,.60351,1.79834,5.03846,5.03846,0,0,0,1.59766,1.22754,14.82455,14.82455,0,0,0,2.26367.90966q1.27.4021,2.59278.85694a25.19138,25.19138,0,0,1,2.59179,1.0581,8.96829,8.96829,0,0,1,2.26367,1.52344,6.89536,6.89536,0,0,1,1.59766,2.25342,7.82392,7.82392,0,0,1,.60352,3.23779,10.54464,10.54464,0,0,1-.709,3.88281,8.9657,8.9657,0,0,1-2.07324,3.15284,9.77615,9.77615,0,0,1-3.333,2.11621,12.27716,12.27716,0,0,1-4.50683.772,14.528,14.528,0,0,1-2.87793-.28564,15.175,15.175,0,0,1-2.71973-.81446,14.17086,14.17086,0,0,1-2.43262-1.26953,11.9867,11.9867,0,0,1-2.02148-1.65039l1.65039-2.73a2.10235,2.10235,0,0,1,.56152-.49707,1.36865,1.36865,0,0,1,.72949-.20117,2.02067,2.02067,0,0,1,1.14258.43408q.61377.43359,1.44922.9624a11.10642,11.10642,0,0,0,1.96875.96289,7.59656,7.59656,0,0,0,2.71875.4336,5.58044,5.58044,0,0,0,3.7666-1.15284,4.14194,4.14194,0,0,0,1.333-3.31152,3.07414,3.07414,0,0,0-.60351-1.96826,4.862,4.862,0,0,0-1.59766-1.27979,11.94018,11.94018,0,0,0-2.26367-.87841q-1.27-.35962-2.582-.78272a22.32628,22.32628,0,0,1-2.58106-1.01562,8.3448,8.3448,0,0,1-2.26367-1.54493,7.00337,7.00337,0,0,1-1.59766-2.38037,9.06766,9.06766,0,0,1-.60351-3.52343,8.42664,8.42664,0,0,1,2.61328-6.07276,9.60667,9.60667,0,0,1,3.14258-1.96777,11.436,11.436,0,0,1,4.25293-.74072,14.28148,14.28148,0,0,1,4.99414.84619,11.28044,11.28044,0,0,1,3.89355,2.37011Z"/>
              <path d="M1130.64258,515.97314v4.67627h-9.2041V546.5708h-5.69141V520.64941H1106.5v-4.67627Z"/>
            </g>
          </g>
        </g>
        <path d="M1307.76221,617.65818l-14.73508,2.9087s1.44435,5.52955,7.9612,4.43763C1308.93448,623.67306,1307.76221,617.65818,1307.76221,617.65818Z" style="fill: #fff"/>
        <g id="_Group_" data-name="&lt;Group&gt;">
          <ellipse id="_Path_" data-name="&lt;Path&gt;" cx="812.19362" cy="842.58708" rx="30.21462" ry="32.38788" transform="translate(-358.03582 855.79761) rotate(-46.69901)" style="fill: url(#radial-gradient)"/>
          <path id="_Path_2" data-name="&lt;Path&gt;" d="M793.30306,816.38491c13.84165-9.411,33.5201-5.309,43.953,9.162a34.02456,34.02456,0,0,1,3.63556,6.45669,34.47725,34.47725,0,0,0-2.01135-3.16723c-10.43293-14.471-30.11139-18.573-43.953-9.162-11.86658,8.06811-15.55994,23.44219-9.80751,36.78554C777.16657,842.44283,780.44762,825.12541,793.30306,816.38491Z" style="fill: #e6cddc;fill-rule: evenodd"/>
          <path id="_Path_3" data-name="&lt;Path&gt;" d="M532.68652,910.09769c5.72843,14.13989,16.98572,19.96846,26.67314,27.25962,13.263,9.98212,36.14727,14.01035,52.18365,3.85772,8.5447-5.40965,12.17681-12.725,7.43746-21.98026-5.13546-10.02883-9.30627-16.98525-18.20766-23.256-11.40732-8.03614-32.16838-20.286-44.86067-25.94757C533.53078,860.04756,526.84937,895.68944,532.68652,910.09769Z" style="fill: url(#radial-gradient-2)"/>
          <path id="_Path_4" data-name="&lt;Path&gt;" d="M885.84754,918.24591c-4.021,8.27326-10.8618,14.825-18.04079,20.57623a164.44785,164.44785,0,0,1-45.76844,25.8743c-7.05736,2.60534-15.25078,4.64309-21.82355.98348-7.34845-4.0915-9.5998-13.66119-9.34289-22.068.7802-25.531,21.59956-53.9257,48.067-57.11312,9.76351-1.17581,24.62192-4.01045,34.32646-2.72968C889.90215,885.96481,891.96144,905.66628,885.84754,918.24591Z" style="fill-rule: evenodd;fill: url(#radial-gradient-3)"/>
          <path id="_Path_5" data-name="&lt;Path&gt;" d="M636.7242,843.77446c-9.98616-23.47033-30.666-25.88436-43.16984-17.36862a26.61439,26.61439,0,0,0-6.46473,37.82076,28.30259,28.30259,0,0,0,12.9105,9.89163" style="fill-rule: evenodd;fill: url(#radial-gradient-4)"/>
          <path id="_Path_6" data-name="&lt;Path&gt;" d="M592.01726,829.59435a26.5602,26.5602,0,0,0-8.2523,9.01705,26.48858,26.48858,0,0,1,9.78939-12.20554c12.5039-8.51581,33.18374-6.1018,43.16988,17.36863l-2.16842,1.79171C624.35359,823.41244,604.266,821.25231,592.01726,829.59435Z" style="fill: #e6cddc;fill-rule: evenodd"/>
          <ellipse id="_Path_7" data-name="&lt;Path&gt;" cx="710.91074" cy="923.49915" rx="124.84519" ry="128.34874" transform="translate(-247.95744 1585.93146) rotate(-87.04946)" style="fill: url(#radial-gradient-5)"/>
          <ellipse id="_Path_8" data-name="&lt;Path&gt;" cx="711.82013" cy="905.30443" rx="75.70182" ry="77.82625" transform="translate(-228.92426 1569.58148) rotate(-87.04946)" style="fill: url(#radial-gradient-6)"/>
          <path id="_Path_9" data-name="&lt;Path&gt;" d="M714.81667,798.71373c59.91831,1.94075,108.98193,43.535,121.391,98.01118-13.80344-52.56573-61.9238-92.259-120.4158-94.15361-70.84725-2.29472-130.02887,51.71337-132.18606,120.63054a121.89613,121.89613,0,0,0,2.98332,30.929,121.71244,121.71244,0,0,1-3.95846-34.78667C584.7878,850.4271,643.96946,796.41891,714.81667,798.71373Z" style="fill: #e6cddc;fill-rule: evenodd"/>
          <g id="_Group_2" data-name="&lt;Group&gt;">
            <path id="_Path_10" data-name="&lt;Path&gt;" d="M747.9362,901.74091c5.81359-18.43064-2.92409-20.93536-29.20985-22.25722-28.7596-1.44625-48.64414-5.42105-40.92736,18.4295,5.00159,15.45861,16.16544,31.61332,42.30147,29.40067C734.43169,926.10059,744.56977,912.41339,747.9362,901.74091Z" style="fill: url(#radial-gradient-7)"/>
            <path id="_Path_11" data-name="&lt;Path&gt;" d="M747.52353,902.97056c5.81359-18.43064-2.92409-20.93536-29.20986-22.25721-28.75959-1.44626-46.52352-6.10332-38.80674,17.74723,5.00159,15.45861,22.42135,27.31727,40.53927,24.93888C730.01,922.09148,744.1571,913.643,747.52353,902.97056Z" style="fill: #582c5f"/>
            <ellipse id="_Ellipse_" data-name="&lt;Ellipse&gt;" cx="681.09673" cy="863.29171" rx="10.37051" ry="6.61939" transform="translate(-194.05061 1529.08631) rotate(-88.99137)" style="fill: #582c5f"/>
            <ellipse id="_Ellipse_2" data-name="&lt;Ellipse&gt;" cx="751.95054" cy="867.94756" rx="10.37051" ry="6.61939" transform="matrix(0.0176, -0.99985, 0.99985, 0.0176, -129.09919, 1604.50303)" style="fill: #582c5f"/>
          </g>
          <g>
            <path d="M782.17943,1079.77683c-17.8332-22.57281-31.17044-42.64956-26.486-53.29737,3.12026-7.09245,12.2138-20.3888,32.15323-15.97087s42.588,24.11944,49.65335,31.9696c12.4973,13.88546,4.23935,31.92445-11.28011,42.33622S796.46491,1097.859,782.17943,1079.77683Z" style="fill-rule: evenodd;fill: url(#radial-gradient-8)"/>
            <g style="clip-path: url(#clip-path)">
              <path d="M843.94721,1069.915s8.0615-17.68429-12.70982-26.37713-41.89345,8.554-47.48368,10.61219-30.435-18.34481-31.30974-34.3876-13.1222,17.45369-12.52469,20.57052,28.201,55.51351,36.50892,58.40973,15.17249,3.43284,24.71109,6.97364,24.48969,6.23716,24.48969,6.23716,12.666-8.95558,17.665-14.21172S843.94721,1069.915,843.94721,1069.915Z" style="fill-rule: evenodd;fill: url(#radial-gradient-9)"/>
            </g>
          </g>
          <g>
            <path d="M638.06388,1079.77683c17.8332-22.57281,31.17044-42.64956,26.486-53.29737-3.12026-7.09245-12.2138-20.3888-32.15323-15.97087s-42.588,24.11944-49.65335,31.9696c-12.4973,13.88546-4.23935,31.92445,11.28011,42.33622S623.7784,1097.859,638.06388,1079.77683Z" style="fill-rule: evenodd;fill: url(#radial-gradient-10)"/>
            <g style="clip-path: url(#clip-path-2)">
              <path d="M576.2961,1069.915s-8.0615-17.68429,12.70982-26.37713,41.89346,8.554,47.48368,10.61219,30.43505-18.34481,31.30975-34.3876,13.12219,17.45369,12.52468,20.57052-28.201,55.51351-36.50892,58.40973-15.17249,3.43284-24.71109,6.97364-24.48969,6.23716-24.48969,6.23716-12.66595-8.95558-17.665-14.21172S576.2961,1069.915,576.2961,1069.915Z" style="fill-rule: evenodd;fill: url(#radial-gradient-11)"/>
            </g>
          </g>
        </g>
      </g>
    </g>
  </g>
</svg>
