<svg xmlns="http://www.w3.org/2000/svg" xmlns:xlink="http://www.w3.org/1999/xlink" viewBox="0 0 2004 1152">
  <defs>
    <linearGradient id="linear-gradient" x1="1534.47278" y1="956" x2="1534.47278" y2="853.22902" gradientUnits="userSpaceOnUse">
      <stop offset="0" stop-color="#ffc33c"/>
      <stop offset="0.17567" stop-color="#fcb135"/>
      <stop offset="0.50513" stop-color="#f79429"/>
      <stop offset="0.79127" stop-color="#f48222"/>
      <stop offset="1" stop-color="#f37c20"/>
    </linearGradient>
    <clipPath id="clip-path">
      <path id="_Clipping_Path_" data-name="&lt;Clipping Path&gt;" d="M1471.33365,677.93717c-6.62418-5.62335-13.95851-10.87183-22.45161-12.70727a20.82666,20.82666,0,0,0-23.09444,10.96167c-10.66441,19.76428-2.09335,41.06305,11.78321,49.87863,8.98451,5.70773,19.45567,8.53057,29.73534,11.29245,4.89248,1.31448,9.85868,2.6297,14.92457,2.601,13.05336-.074,35.77757-12.37254,32.28269-28.394-1.82808-8.38034-10.42621-11.24715-17.21112-14.6803C1487.43933,691.89876,1479.70025,685.0397,1471.33365,677.93717Z" style="fill: none;clip-rule: evenodd"/>
    </clipPath>
    <radialGradient id="radial-gradient" cx="1985.61658" cy="-1906.82062" r="241.70348" gradientTransform="matrix(-0.8037, 0.59503, 0.59503, 0.8037, 4038.1427, 879.37601)" gradientUnits="userSpaceOnUse">
      <stop offset="0.2866" stop-color="#ffe638" stop-opacity="0"/>
      <stop offset="0.36215" stop-color="#fee338" stop-opacity="0.02518"/>
      <stop offset="0.45876" stop-color="#fcd936" stop-opacity="0.09718"/>
      <stop offset="0.56677" stop-color="#f8c934" stop-opacity="0.21597"/>
      <stop offset="0.68313" stop-color="#f2b331" stop-opacity="0.38174"/>
      <stop offset="0.80622" stop-color="#eb972d" stop-opacity="0.59468"/>
      <stop offset="0.93301" stop-color="#e27529" stop-opacity="0.8507"/>
      <stop offset="1" stop-color="#dd6126"/>
    </radialGradient>
    <radialGradient id="radial-gradient-2" cx="1720.96909" cy="-1664.14424" r="92.81113" gradientTransform="matrix(-0.8037, 0.59503, 0.59503, 0.8037, 4038.1427, 879.37601)" gradientUnits="userSpaceOnUse">
      <stop offset="0" stop-color="#ffbf3c" stop-opacity="0"/>
      <stop offset="0.09433" stop-color="#febb3b" stop-opacity="0.03939"/>
      <stop offset="0.2463" stop-color="#fab139" stop-opacity="0.14669"/>
      <stop offset="0.43701" stop-color="#f4a135" stop-opacity="0.32175"/>
      <stop offset="0.65895" stop-color="#ec8a30" stop-opacity="0.56474"/>
      <stop offset="0.90435" stop-color="#e16d29" stop-opacity="0.87134"/>
      <stop offset="1" stop-color="#dd6126"/>
    </radialGradient>
    <radialGradient id="radial-gradient-3" cx="-168.19736" cy="-155.40997" r="92.81113" gradientTransform="matrix(0.7631, 0.64628, -0.64628, 0.7631, 1538.81434, 796.60771)" xlink:href="#radial-gradient-2"/>
    <linearGradient id="linear-gradient-2" x1="1976.16371" y1="-1772.77963" x2="1960.5958" y2="-1629.13023" gradientTransform="matrix(-0.8037, 0.59503, 0.59503, 0.8037, 4038.1427, 879.37601)" xlink:href="#linear-gradient"/>
    <linearGradient id="linear-gradient-3" x1="1893.97071" y1="-1562.19989" x2="2020.45971" y2="-1267.05889" gradientTransform="matrix(-0.8037, 0.59503, 0.59503, 0.8037, 4038.1427, 879.37601)" xlink:href="#linear-gradient"/>
    <clipPath id="clip-path-2">
      <path id="_Clipping_Path_2" data-name="&lt;Clipping Path&gt;" d="M1599.26077,588.844c97.11945,57.95093,165.0444,217.34477,110.45552,271.26106-17.04363,16.83364-52.53916,33.45482-77.16118,37.20761-35.58042,5.423-92.67234,8.40156-135.6499-28.00868-31.79661-26.93783-34.599-70.5634-30.61734-108.7396,1.58544-15.2013,5.54484-30.66383,9.60256-46.79084,10.41325-41.38635,35.23357-81.76581,48.54983-99.81816C1551.89308,576.73865,1577.79773,576.03707,1599.26077,588.844Z" style="fill: none;clip-rule: evenodd"/>
    </clipPath>
    <radialGradient id="radial-gradient-4" cx="1878.23839" cy="-1582.1421" r="193.5011" gradientTransform="matrix(0.29849, 0.95441, 2.02747, -0.63408, 4234.28409, -2070.4038)" gradientUnits="userSpaceOnUse">
      <stop offset="0" stop-color="#ffe638" stop-opacity="0"/>
      <stop offset="0.15157" stop-color="#fbd536" stop-opacity="0.12441"/>
      <stop offset="0.47888" stop-color="#f0ab30" stop-opacity="0.44336"/>
      <stop offset="0.95369" stop-color="#df6827" stop-opacity="0.94897"/>
      <stop offset="1" stop-color="#dd6126"/>
    </radialGradient>
    <radialGradient id="radial-gradient-5" cx="1779.70226" cy="-1782.63808" r="227.82986" gradientTransform="matrix(-0.8037, 0.59503, 0.59503, 0.8037, 4038.1427, 879.37601)" gradientUnits="userSpaceOnUse">
      <stop offset="0" stop-color="#ff9e18" stop-opacity="0"/>
      <stop offset="0.12987" stop-color="#ff9e18" stop-opacity="0.01517"/>
      <stop offset="0.25599" stop-color="#ff9e18" stop-opacity="0.06104"/>
      <stop offset="0.38067" stop-color="#ff9e18" stop-opacity="0.1378"/>
      <stop offset="0.50446" stop-color="#ff9e18" stop-opacity="0.24557"/>
      <stop offset="0.62764" stop-color="#ff9e18" stop-opacity="0.38448"/>
      <stop offset="0.75035" stop-color="#ff9e18" stop-opacity="0.55467"/>
      <stop offset="0.8728" stop-color="#ff9e18" stop-opacity="0.7564"/>
      <stop offset="0.99212" stop-color="#ff9e18" stop-opacity="0.9839"/>
      <stop offset="1" stop-color="#ff9e18"/>
    </radialGradient>
    <radialGradient id="radial-gradient-6" cx="1866.07184" cy="-1597.96205" r="24.81265" gradientTransform="matrix(-0.8037, 0.59503, 0.59503, 0.8037, 4038.1427, 879.37601)" xlink:href="#radial-gradient-4"/>
    <linearGradient id="linear-gradient-4" x1="1811.01755" y1="-1517.53894" x2="2030.2473" y2="-1502.18806" gradientTransform="matrix(-0.8037, 0.59503, 0.59503, 0.8037, 4038.1427, 879.37601)" gradientUnits="userSpaceOnUse">
      <stop offset="0" stop-color="#ffc33c"/>
      <stop offset="1" stop-color="#f37c20"/>
    </linearGradient>
    <radialGradient id="radial-gradient-7" cx="1877.84465" cy="-1597.21246" r="186.1022" gradientTransform="matrix(-0.8037, 0.59503, 0.59503, 0.8037, 4038.1427, 879.37601)" xlink:href="#radial-gradient-4"/>
    <linearGradient id="linear-gradient-5" x1="2061.56977" y1="519.45058" x2="2021.64718" y2="608.67103" gradientTransform="matrix(0.10268, -0.99471, 0.99471, 0.10268, 958.33716, 2819.64457)" gradientUnits="userSpaceOnUse">
      <stop offset="0.2866" stop-color="#ffc33c"/>
      <stop offset="0.4671" stop-color="#fdb637"/>
      <stop offset="0.80037" stop-color="#f79429"/>
      <stop offset="1" stop-color="#f37c20"/>
    </linearGradient>
    <clipPath id="clip-path-3">
      <path d="M1737.84756,885.1761c-31.26428-4.46422-57.06358-10.34441-61.39309-22.35877-2.88386-8.00271-5.70979-25.45982,13.49436-37.03115s52.12663-13.03442,63.68632-12.1352c20.44694,1.59055,27.52575,22.1882,23.05749,42.21237S1762.89213,888.75221,1737.84756,885.1761Z" style="fill: none;clip-rule: evenodd"/>
    </clipPath>
    <linearGradient id="linear-gradient-6" x1="1680.90673" y1="828.76224" x2="1789.07023" y2="891.21046" gradientUnits="userSpaceOnUse">
      <stop offset="0" stop-color="#ffe638" stop-opacity="0"/>
      <stop offset="0.14426" stop-color="#f8cb34" stop-opacity="0.2051"/>
      <stop offset="0.39931" stop-color="#ed9e2e" stop-opacity="0.54253"/>
      <stop offset="0.61096" stop-color="#e47d2a" stop-opacity="0.7898"/>
      <stop offset="0.76821" stop-color="#df6927" stop-opacity="0.94243"/>
      <stop offset="0.85358" stop-color="#dd6126"/>
    </linearGradient>
  </defs>
  <title>Reblood Asset Web</title>
  <g style="isolation: isolate">
    <g id="Layer_1" data-name="Layer 1">
      <g>
        <g>
          <g>
            <path d="M1722.38158,955.3302a522.7174,522.7174,0,0,1-32.93362,72.29649q-2.74956,4.99717-5.48666,9.74818H282.57q-3.05093-4.839-6.01415-9.74818c-51.30261-84.94235-82.61653-182.31909-74.81928-278.58139C212.911,610.99791,331.77584,498.53542,473.35384,468.52822c144.17693-30.55856,301.51242,8.50472,394.17338,119.66518,28.48887,34.1952,55.55914,93.13031,111.26853,89.4351,55.91046-3.70679,73.13693-71.78028,134.50931-139.92407,109.08374-121.10824,328.65767-210.25,471.56655-150.32948C1763.76526,462.36953,1794.13755,759.00465,1722.38158,955.3302Z" style="fill: #e9e2f0"/>
            <g>
              <path d="M1557.9532,948.311c-78.83022,50.717-129.07738,20.93515-153.05406-3.08059a117.16447,117.16447,0,0,1-13.80847-16.6962c-1.88547-2.78243-2.81992-4.498-2.81992-4.498S1360.74694,814.145,1540.79544,743.86207s250.15359-150.812,250.15359-150.812C1791.45338,667.1544,1673.49965,873.95932,1557.9532,948.311Z" style="fill: #92bcd3"/>
              <path d="M1718.68443,700.40152q-12.89262,13.91824-26.25693,27.39933-26.72693,27.00372-55.00353,52.43946-28.256,25.42827-58.00739,49.25855c-9.87163,7.99-19.97624,15.65791-30.06443,23.39409-10.22031,7.53468-20.4096,15.15063-30.87594,22.37719l-7.78743,5.51068-7.90416,5.34973c-5.29819,3.54-10.53794,7.16066-15.86644,10.61893l-16.08524,10.31008c-5.3553,3.487-10.874,6.663-16.28967,10.01456l-8.18093,4.96034c-2.73586,1.66287-5.53206,3.19028-8.28432,4.78505l-16.62561,9.51694c-5.514,2.94161-11.026,5.93815-16.55327,8.894a117.16447,117.16447,0,0,1-13.80847-16.6962c7.03135-3.289,14.00353-6.68633,21.03386-10.00284l16.7331-8.51453c2.77188-1.44365,5.58756-2.82022,8.35725-4.31907l8.24068-4.47986c5.48329-3.02289,11.06883-5.89817,16.47756-9.07014l16.30036-9.36669c5.42295-3.15864,10.75687-6.4794,16.1359-9.70526l8.04533-4.89986,7.9434-5.04792c10.668-6.64152,21.08643-13.6733,31.549-20.63788,10.34493-7.15289,20.71856-14.27958,30.87356-21.71511q30.5735-22.16559,59.89446-46.076,29.28582-23.91609,57.19715-49.53078,13.99089-12.78124,27.49482-26.04034c9.02488-8.85384,17.92119-17.827,26.48874-27.10483C1735.74589,681.72468,1727.26519,691.10938,1718.68443,700.40152Z" style="fill: #6797b2"/>
            </g>
            <g>
              <path d="M1467.18971,527.22814c-43.92989,98.86856-15.3741,211.74535-3.0286,250.83645,2.86971,9.092,4.85842,14.19816,4.85842,14.19816s5.12231-1.94653,13.79324-5.91076c37.28546-17.03873,140.18019-71.50862,184.11009-170.37719,54.14673-121.86242-1.81517-265.028-1.81517-265.028S1521.33641,405.36571,1467.18971,527.22814Z" style="fill: #6797b2"/>
              <path d="M1464.16111,778.06459c2.86971,9.092,4.85842,14.19816,4.85842,14.19816s5.12231-1.94653,13.79324-5.91076l160.8188-387.07116Z" style="fill: #fff"/>
            </g>
            <g>
              <path d="M508.31655,727.56083c70.06981,82.432,74.56344,198.7782,73.76356,239.76458-.18452,9.53231-.64977,14.99232-.64977,14.99232s-5.46352-.42044-14.90109-1.77372C525.94911,974.732,411.858,951.54712,341.7882,869.11511c-86.366-101.60325-73.126-254.74635-73.126-254.74635S421.95047,625.95758,508.31655,727.56083Z" style="fill: #6797b2"/>
              <path d="M582.08011,967.32541c-.18452,9.53231-.64977,14.99232-.64977,14.99232s-5.46352-.42044-14.90109-1.77372L302.91735,654.66744Z" style="fill: #fff"/>
            </g>
            <g>
              <path d="M438.428,713.39445c62.231,70.09823,118.64842,54.97161,148.21351,38.31217a117.17983,117.17983,0,0,0,17.7998-12.35326c2.566-2.171,3.9285-3.57088,3.9285-3.57088S664.51139,637.38649,510.09,521.149,309.87987,308.45891,309.87987,308.45891C289.4082,379.68124,347.216,610.635,438.428,713.39445Z" style="fill: #92bcd3"/>
              <path d="M350.51405,431.32213q8.661,16.87954,17.89425,33.46562,18.4539,33.21125,38.82253,65.33075,20.35113,32.10654,42.5728,63.07786c7.351,10.35621,15.01312,20.46522,22.64108,30.63544,7.80941,10.01192,15.56712,20.0937,23.69665,29.87526l6.01269,7.40683,6.1685,7.28309c4.147,4.83777,8.21609,9.73748,12.41463,14.50466l12.70853,14.26611c4.21626,4.80233,8.674,9.349,12.985,14.03693l6.54,6.98288c2.186,2.33914,4.46668,4.56421,6.68677,6.84214l13.4428,13.64812c4.51647,4.31965,9.01595,8.69187,13.54121,13.0288a117.17983,117.17983,0,0,0,17.7998-12.35326c-5.88382-5.06358-11.68138-10.21533-17.5567-15.30513L573.068,711.33633c-2.27983-2.13778-4.61986-4.2227-6.88285-6.41292l-6.727-6.53651c-4.46477-4.38965-9.0678-8.66479-13.42069-13.178l-13.17013-13.41571c-4.37017-4.50417-8.61074-9.14028-12.92058-13.69761l-6.42566-6.88813-6.28756-7.00309c-8.48158-9.27252-16.61741-18.8536-24.814-28.38182-8.03244-9.67788-16.09959-19.33833-23.873-29.237q-23.46248-29.58984-45.24818-60.52227-21.75063-30.928-41.71933-63.12135Q361.55364,446.861,352.1261,430.45109c-6.30264-10.95985-12.44933-21.99981-18.197-33.24434C339.12205,408.736,344.75735,420.06017,350.51405,431.32213Z" style="fill: #6797b2"/>
            </g>
            <g>
              <g>
                <g>
                  <path d="M1427.772,274.40459H560.37158a91.38121,91.38121,0,0,0-91.28131,91.28146v647.50583H1519.0535V365.68605A91.3899,91.3899,0,0,0,1427.772,274.40459Zm56.564,704.07H503.80754V365.68605a56.631,56.631,0,0,1,56.564-56.57751H1427.772a56.63953,56.63953,0,0,1,56.564,56.57751Z" style="fill: #511c55"/>
                  <path d="M1484.33608,365.68605V952.06641H503.80754V365.68605a56.631,56.631,0,0,1,56.564-56.57751H1427.772A56.63953,56.63953,0,0,1,1484.33608,365.68605Z" style="fill: #ead2e5"/>
                </g>
                <path d="M1608.37436,952.06641a80.96038,80.96038,0,0,1-80.97152,80.97182H460.7276a80.9676,80.9676,0,0,1-80.95834-80.97182Z" style="fill: #3a0c3b"/>
              </g>
              <path d="M1255.72513,976.4449l-523.32873.68155a8.15267,8.15267,0,0,0,.00791,16.30534h.0104l523.3287-.68155a8.15268,8.15268,0,1,0-.01828-16.30534Z" style="fill: #6f2c7b"/>
              <path d="M1484.33608,638.08971v313.9767H503.80754V772.42461C568.961,789.56321,634.31439,804.101,701.455,803.95424c38.91859-.08011,78.22409-5.26832,114.42192-19.57939,39.01216-15.40456,73.10251-40.77242,109.11361-62.25923C1056.61786,643.55821,1214.2931,617.3234,1367.5,622.365,1406.81872,623.65871,1446.7778,627.0997,1484.33608,638.08971Z" style="fill: #d1aacf"/>
            </g>
            <g>
              <path d="M662.40246,431.026c.37343,2.90749,3.58771,30.22262-4.50813,45.6941-8.5759,16.35162-30.36921-11.68357-30.36921-11.68357l.29332-1.66726.01333-.05331,5.6952-32.54346,8.66932-49.4684a.04131.04131,0,0,1,.02651.01318c1.01368.45353,31.8231,14.61787,20.15285,49.45522C662.37565,430.77253,662.38912,430.866,662.40246,431.026Z" style="fill: #511c55"/>
              <path d="M677.9413,1034.39591s63.18257-3.6034,63.11023-6.19223c-.36171-12.94475-31.90775-22.51851-33.50077-23.77675s-13.48234-7.89669-30.53513.64318C677.01563,1005.07011,671.02345,1022.05524,677.9413,1034.39591Z" style="fill: #1d2a49"/>
              <path d="M709.577,1004.84254s-12.75057,20.61986-34.98409,7.62913L642.31624,849.0614l-.24-.70674-8.82939-26.32824-25.22113-75.15654-25.47447-75.94323,43.28-39.07881,4.97484-4.48132,33.31683,11.88376s7.89581,38.23822,16.5518,82.73207c1.13377,5.82832,2.28072,11.75021,3.44114,17.71208,9.02943,47.12106,17.91212,96.46967,18.76574,112.688C704.80216,888.687,709.577,1004.84254,709.577,1004.84254Z" style="fill: #323d74"/>
              <path d="M560.51744,1033.21118s62.922,6.76907,63.27366,4.20323c1.75834-12.82994-27.79927-27.42965-29.1653-28.93114s-12.01088-9.99376-30.2298-4.35509C564.396,1004.12818,555.709,1019.90589,560.51744,1033.21118Z" style="fill: #1d2a49"/>
              <path d="M686.00977,721.98235s-.32013,6.77522-1.894,17.71208c-3.62785,25.00761-13.85768,71.74206-42.0396,108.66023l-8.82939-26.32824-25.22113-75.15654c3.97463-14.93785,6.97556-24.88753,6.97556-24.88753Z" style="fill: #202e59"/>
              <path d="M644.07677,644.145s-1.66711,35.37085-4.08124,77.83734c-1.92061,33.58365-4.32126,71.59532-6.74871,100.04407-1.49387,17.352-2.9876,31.14287-4.40137,38.21171-.25334,1.267-.53349,2.62749-.827,4.08139-7.9891,39.49192-30.44932,145.28464-30.44932,145.28464s-17.4722,16.81847-35.79773-1.267l9.21614-166.31776-6.04183-82.19887-6.24187-84.93269c1.49373-7.65564,2.93415-15.485,4.24116-23.27372l51.80271-27.23516,11.08345,7.46892,7.48225,5.04162Z" style="fill: #35488d"/>
              <path d="M649.98519,389.23977s-6.37513,20.75313-12.60382,41.53276c-3.68116,12.2572-7.30887,24.52772-9.5496,32.54346l-.01333.05331c-1.5072,5.38825-2.38732,8.82938-2.22726,9.0694.78684,1.16042-15.885,21.01981-15.885,21.01981s-29.2889,31.52977-35.51759,35.03754c-6.22854,3.50777-26.86158,10.89673-28.42209-15.965-1.067-18.35233-16.12492-20.3529-26.43486-24.12734-.0265,0-.04-.01333-.06663-.01333-4.73482-1.74722-8.46928-3.8812-9.3229-8.17581-2.72078-13.61765,3.50777-24.51424,38.93207-36.86472,35.43763-12.33715,8.17581-32.42337,22.58031-56.64414s36.63788-8.48261,36.63788-8.48261c15.12471-7.549,26.92836-2.42745,34.104,3.081a.04131.04131,0,0,1,.02651.01318A38.22652,38.22652,0,0,1,649.98519,389.23977Z" style="fill: #511c55"/>
              <path d="M657.89433,476.72013c-8.5759,16.35162-30.36921-11.68357-30.36921-11.68357l.29332-1.66726c-1.5072,5.38825-2.38732,8.82938-2.22726,9.0694.78684,1.16042-15.885,21.01981-15.885,21.01981s-29.2889,31.52977-35.51759,35.03754c-6.22854,3.50777-26.86158,10.89673-28.42209-15.965-1.067-18.35233-16.12492-20.3529-26.43486-24.12734,27.3018,7.74907,43.62691-28.12862,70.64857-27.74186,27.0483.38675,18.11216-29.88932,18.11216-29.88932H646.064l16.33845.2535C662.77589,433.93352,665.99017,461.24865,657.89433,476.72013Z" style="fill: #3b0b3c"/>
              <path d="M667.77591,693.15593H579.68209L587.151,491.21382l-7.46893-15.16469c.40023-.08.8135-.16006,1.22691-.24l29.78256-5.78848,11.91026-2.3207s7.2024.787,15.925,2.30737c11.17673,1.93393,24.861,5.00149,29.24906,9.0161a.04735.04735,0,0,0,.02665.04c.96038.93373,1.69392,4.90821,2.21394,11.16355v.04C673.77776,534.66719,667.77591,693.15593,667.77591,693.15593Z" style="fill: #ffcf5c"/>
              <path d="M667.78177,479.02648s28.9323,6.35712,42.37306,86.36138H669.19261Z" style="fill: #fff"/>
              <path d="M638.52846,475.19961a18.538,18.538,0,0,1-1.25371,2.77423c-2.93429,5.38825-11.23018,14.91119-26.80828-7.44227l2.74743-27.18172,22.727,2.93415Z" style="fill: #f8ad83"/>
              <path d="M638.52846,475.19961a18.538,18.538,0,0,1-1.25371,2.77423c-18.299-5.90842-24.06085-34.624-24.06085-34.624l22.727,2.93415Z" style="fill: #e36756"/>
              <path d="M610.4653,415.70977s-8.17566,43.79824,29.00421,43.0196c20.65559-.43244,23.8879-17.92779,22.68091-33.39371a79.63014,79.63014,0,0,0-10.87768-33.8903l-1.29164-2.20925L619.225,386.70556l-3.50382,8.17566Z" style="fill: #f8ad83"/>
              <path d="M670.0165,490.22693s13.85475,16.081,13.17847,31.98024,5.6911,20.71959,6.56507,31.85269c.87384,11.13294-35.7084,26.36807-35.7084,26.36807Z" style="fill: #c1bedf"/>
              <path d="M649.9811,389.23611s-5.92205,35.31227-34.63,41.54125c-28.70795,6.22913-4.8858-47.88607-4.8858-47.88607Z" style="fill: #511c55"/>
              <path d="M608.09789,430.77736a7.25321,7.25321,0,1,0,7.25321-7.25321A7.25326,7.25326,0,0,0,608.09789,430.77736Z" style="fill: #f9b07c"/>
              <path d="M701.54627,758.42942c-24.701,10.79-58.80477,5.295-58.80477,5.295s-.81364-31.30293-1.70724-70.56845c-1.05366-46.10738-2.26724-103.19173-2.50741-133.58774-.01333-1.66712-.02665-3.30758-.03983-4.93486-.37358-53.28312.03983-84.626.03983-84.626,11.17673,1.93393,24.861,5.00149,29.24906,9.0161a.04735.04735,0,0,0,.02665.04c.06664.37343.987,4.37471,2.21394,11.16355v.04a479.06508,479.06508,0,0,1,7.389,90.14769C676.49868,636.85871,701.54627,758.42942,701.54627,758.42942Z" style="fill: #fff"/>
              <path d="M633.31345,554.064V763.72848a244.4761,244.4761,0,0,1-56.69745-1.81385c-3.82789-.57362-7.73574-1.267-11.67025-2.09414a168.67154,168.67154,0,0,1-23.94076-6.81535s9.61637-36.63788,17.69889-78.11734c1.49373-7.65564,2.93415-15.485,4.24116-23.27372,3.72129-21.98032,6.46871-43.69354,6.6421-60.61877.16006-14.44448-.41341-27.8085-1.347-39.65228-2.641-33.57032-8.17595-55.04351-8.17595-55.04351s6.73539-17.73888,19.61936-20.24629c.40023-.08.81364-.16006,1.2272-.24l21.16639-4.108,8.616-1.68044Z" style="fill: #fff"/>
              <path d="M638.52685,470.0073s-.41341,31.34291-.04,84.626l.04.46686,12.43044-45.46741-4.668-3.66769,7.76239-4.05458-6.01517-30.06271Z" style="fill: #d8dee7"/>
              <path d="M585.76552,680.50275c1.13361,20.193-5.69506,61.99242-9.14952,81.41188-3.82789-.57362-7.73574-1.267-11.67025-2.09414a168.67154,168.67154,0,0,1-23.94076-6.81535s9.61637-36.63788,17.69889-78.11734c1.49373-7.65564,2.93415-15.485,4.24116-23.27372,3.72129-21.98032,6.46871-43.69354,6.6421-60.61877.16006-14.44448-.41341-27.8085-1.347-39.65228l13.00391-8.0424s-6.32183,45.01388,10.2165,63.04608C608.01237,624.37892,584.25846,653.668,585.76552,680.50275Z" style="fill: #c1bedf"/>
              <polygon points="606.717 512.034 613.813 507.085 604.69 503.031 602.076 471.701 610.692 470.021 633.312 554.06 606.717 512.034" style="fill: #d8dee7"/>
              <path d="M542.26938,697.39621s5.8349,48.28909,27.88933,30.30067c15.37938-12.54408-13.04433-36.83968-13.04433-36.83968Z" style="fill: #f8ad83"/>
              <path d="M568.56717,483.37263s-53.75189,56.54779-57.04233,118.288c-1.62289,30.45224,28.09977,101.37158,28.09977,101.37158s12.53294,5.31679,23.78407-8.08838L551.8055,607.38559l29.43461-64.0791Z" style="fill: #fff"/>
              <path d="M721.41679,588.71459s.62077,17.79541-11.91408,26.81678c-14.69973,10.57954-3.604-28.94241-3.604-28.94241Z" style="fill: #fff"/>
              <path d="M723.91469,543.14057s-.02667.13326-.08.37343l-16.83195,84.59938H600.19652l16.92523-84.97281Z" style="fill: #545ba2"/>
              <path d="M723.83472,543.514l-16.83195,84.59938H600.19652C702.30807,626.93978,722.421,549.55583,723.83472,543.514Z" style="fill: #383f7f"/>
              <path d="M710.61348,569.29118a16.98091,16.98091,0,0,1,11.373,14.409c.379,4.64344-1.24373,9.39261-8.398,11.31176-11.99418,3.21766-29.63509-19.70357-21.9547-26.06391C696.152,565.20642,704.50283,567.09877,710.61348,569.29118Z" style="fill: #f8ad83"/>
              <rect x="650.95172" y="538.10642" width="43.20222" height="5.0403" style="fill: #383f7f"/>
              <path d="M560.94374,678.36511a2.00041,2.00041,0,0,1-1.98051-1.73756l-9.217-69.55125,24.7361-53.85132a2.00085,2.00085,0,1,1,3.63663,1.6699l-24.2543,52.80131,9.06472,68.40519a2.00173,2.00173,0,0,1-1.72,2.24674A2.0362,2.0362,0,0,1,560.94374,678.36511Z" style="fill: #95a7c3"/>
              <path d="M608.0276,964.95858a2.00034,2.00034,0,0,1-1.94917-2.4604c.19345-.81789,19.35357-82.28835,22.55117-114.34107,2.59527-26.01588,6.61149-71.50379,6.65176-71.95967a2.00054,2.00054,0,1,1,3.98561.35161c-.04027.45719-4.05854,45.966-6.65556,72.00389-3.22368,32.31736-22.44442,114.04292-22.6386,114.86491A2.00032,2.00032,0,0,1,608.0276,964.95858Z" style="fill: #9caed9"/>
            </g>
            <g>
              <g>
                <path d="M1421.34568,423.14486a69.14589,69.14589,0,0,1-3.44117,16.1917,66.516,66.516,0,0,1-3.97448,9.33623,68.24366,68.24366,0,0,1-7.04218,10.96322l.0533.05345-.48.48019a68.979,68.979,0,0,1-5.12176,5.7485l-91.70819,91.7082-.30665-.32028-.3068.32028-27.035-27.035-64.65989-64.67322a69.15234,69.15234,0,0,1-5.135-5.7485l-.48-.48019.05331-.05345a68.49818,68.49818,0,0,1-6.322-9.603,67.18413,67.18413,0,0,1-4.21448-9.33623,68.91984,68.91984,0,0,1-3.92135-17.55187c-.18672-2.04069-.26667-4.09471-.26667-6.14858a69.24205,69.24205,0,0,1,112.28793-54.27015,69.24491,69.24491,0,0,1,112.02114,60.41873Z" style="fill: #f0574b"/>
                <path d="M1417.90891,439.3351a66.48312,66.48312,0,0,1-3.97449,9.33622h-54.84361l-8.44263-13.89751-24.55408,49.80186-17.28534-59.45806L1286.7353,484.9759,1266.089,431.2927l-8.16265,18.73909h-52.48263a67.234,67.234,0,0,1-4.215-9.33623h50.5758l14.83109-34.01039,19.91284,51.80257L1309.849,395.2816l18.4991,63.60608,21.44668-43.50653,14.55092,23.954Z" style="fill: #fff"/>
              </g>
              <path d="M1421.34568,423.14486a69.14589,69.14589,0,0,1-3.44117,16.1917,66.516,66.516,0,0,1-3.97448,9.33623,68.24366,68.24366,0,0,1-7.04218,10.96322l.0533.05345-.48.48019a68.979,68.979,0,0,1-5.12176,5.7485l-91.70819,91.7082-.30665-.32028-.3068.32028L1244.998,493.60671l45.77409,28.1951,82.5588-82.55853a68.99849,68.99849,0,0,0,5.12158-5.74851l.48021-.48019-.05333-.05345a68.25256,68.25256,0,0,0,7.042-10.96321,66.531,66.531,0,0,0,3.97463-9.33623,69.3006,69.3006,0,0,0-5.65507-57.2043,69.3589,69.3589,0,0,1,37.10477,67.68747Z" style="fill: #ae807e;opacity: 0.5;mix-blend-mode: multiply"/>
            </g>
            <g>
              <rect x="1382.27534" y="702.87188" width="67.65335" height="67.65335" style="fill: #fffdf5"/>
              <path d="M1416.53336,754.88211l-24.90027-17.42432a3.33744,3.33744,0,0,1,3.83083-5.46615l20.20952,14.14734,24.516-25.56161a3.336,3.336,0,0,1,4.81449,4.61913Z" style="fill: #3a0c3b"/>
              <g>
                <path d="M1095.41124,710.21765h223.98541a6.67132,6.67132,0,1,0,0-13.34264H1095.41124a6.67132,6.67132,0,1,0,0,13.34264Z" style="fill: #fffdf5"/>
                <path d="M1095.41124,743.5746h223.98541a6.67139,6.67139,0,1,0,0-13.34278H1095.41124a6.67139,6.67139,0,1,0,0,13.34278Z" style="fill: #fffdf5"/>
                <path d="M1095.41124,776.93141h223.98541a6.67139,6.67139,0,1,0,0-13.34278H1095.41124a6.67139,6.67139,0,1,0,0,13.34278Z" style="fill: #fffdf5"/>
              </g>
            </g>
            <g>
              <rect x="1382.27534" y="825.57636" width="67.65335" height="67.6532" style="fill: #fffdf5"/>
              <path d="M1416.53336,877.58659l-24.90027-17.42432a3.33745,3.33745,0,0,1,3.83083-5.46616l20.20952,14.14735,24.516-25.56161a3.336,3.336,0,0,1,4.81449,4.61913Z" style="fill: #3a0c3b"/>
              <g>
                <path d="M935.362,832.92213h384.03464a6.67132,6.67132,0,1,0,0-13.34264H935.362a6.67132,6.67132,0,1,0,0,13.34264Z" style="fill: #fffdf5"/>
                <path d="M935.362,866.27893h384.03464a6.67132,6.67132,0,1,0,0-13.34263H935.362a6.67132,6.67132,0,1,0,0,13.34263Z" style="fill: #fffdf5"/>
                <path d="M935.362,899.63574h384.03464a6.67132,6.67132,0,1,0,0-13.34263H935.362a6.67132,6.67132,0,1,0,0,13.34263Z" style="fill: #fffdf5"/>
              </g>
            </g>
            <g>
              <g>
                <path d="M785.47391,621.68508h0a8.086,8.086,0,0,1-8.08589-8.08589V494.30451H793.5598V613.59919a8.08523,8.08523,0,0,1-8.08589,8.08589Z" style="fill: #72739f"/>
                <path d="M1084.65217,621.68508h0a8.08587,8.08587,0,0,1-8.08589-8.08589V494.30451h16.17178V613.59919a8.08609,8.08609,0,0,1-8.08589,8.08589Z" style="fill: #72739f"/>
              </g>
              <g>
                <g>
                  <path d="M839.3942,570.38672h0a23.50441,23.50441,0,0,1-23.50436-23.50437V387.01587h47.00874V546.88235a23.50291,23.50291,0,0,1-23.50438,23.50437Z" style="fill: #fff"/>
                  <path d="M853.74292,402.11393V545.60126a14.35063,14.35063,0,1,1-28.70123,0V402.11393Z" style="fill: #f0574b"/>
                  <path d="M873.27412,383.06936v.00015a7.3262,7.3262,0,0,1-7.32864,7.32848H812.83912a7.32861,7.32861,0,0,1-7.32863-7.32848v-.00015a7.32861,7.32861,0,0,1,7.32863-7.32848h53.10636A7.32852,7.32852,0,0,1,873.27412,383.06936Z" style="fill: #72739f"/>
                </g>
                <g>
                  <path d="M935.065,570.38672h-.00015a23.50443,23.50443,0,0,1-23.50437-23.50437V387.01587h47.00888V546.88235A23.50438,23.50438,0,0,1,935.065,570.38672Z" style="fill: #fff"/>
                  <path d="M949.41372,460.48816v85.1131a14.35069,14.35069,0,1,1-28.70136,0v-85.1131Z" style="fill: #f0574b"/>
                  <path d="M968.94478,383.06936v.00015a7.32618,7.32618,0,0,1-7.32847,7.32848H908.51a7.32852,7.32852,0,0,1-7.32865-7.32848v-.00015a7.32852,7.32852,0,0,1,7.32865-7.32848h53.10636A7.32848,7.32848,0,0,1,968.94478,383.06936Z" style="fill: #72739f"/>
                </g>
                <g>
                  <path d="M1030.73569,570.38672h0a23.50432,23.50432,0,0,1-23.50437-23.50437V387.01587h47.00873V546.88235a23.50377,23.50377,0,0,1-23.50436,23.50437Z" style="fill: #fff"/>
                  <path d="M1045.08439,428.05805V545.60126a14.35062,14.35062,0,1,1-28.70122,0V428.05805Z" style="fill: #f0574b"/>
                  <path d="M1064.61559,383.06936v.00015a7.32616,7.32616,0,0,1-7.32863,7.32848H1004.1806a7.32851,7.32851,0,0,1-7.32863-7.32848v-.00015a7.32851,7.32851,0,0,1,7.32863-7.32848H1057.287A7.32861,7.32861,0,0,1,1064.61559,383.06936Z" style="fill: #72739f"/>
                </g>
              </g>
              <rect x="749.20126" y="480.29512" width="371.72355" height="28.01586" style="fill: #a6a3cc"/>
            </g>
            <g>
              <g>
                <path d="M1147.1289,784.5046v248.48149H802.569V784.5046a21.86283,21.86283,0,0,1,21.85028-21.87635h300.83322A21.88508,21.88508,0,0,1,1147.1289,784.5046Z" style="fill: #ffc546"/>
                <path d="M1147.1289,784.5046v29.8221H802.569V784.5046a21.86283,21.86283,0,0,1,21.85028-21.87635h300.83322A21.88508,21.88508,0,0,1,1147.1289,784.5046Z" style="fill: #868bc4"/>
              </g>
              <g>
                <g>
                  <path d="M856.47922,790.90346a8.3932,8.3932,0,1,1-8.39313-8.39327A8.39314,8.39314,0,0,1,856.47922,790.90346Z" style="fill: #37386b"/>
                  <path d="M848.08624,796.13121a5.22765,5.22765,0,0,1-5.22731-5.22731V752.91376a5.22731,5.22731,0,0,1,10.45462,0V790.9039A5.22756,5.22756,0,0,1,848.08624,796.13121Z" style="fill: #37386b"/>
                </g>
                <g>
                  <path d="M907.18434,790.90346a8.39313,8.39313,0,1,1-8.39313-8.39327A8.39314,8.39314,0,0,1,907.18434,790.90346Z" style="fill: #37386b"/>
                  <path d="M898.79151,796.13121a5.22755,5.22755,0,0,1-5.22731-5.22731V752.91376a5.22731,5.22731,0,1,1,10.45462,0V790.9039A5.22765,5.22765,0,0,1,898.79151,796.13121Z" style="fill: #37386b"/>
                </g>
                <g>
                  <path d="M957.88961,790.90346a8.39321,8.39321,0,1,1-8.39328-8.39327A8.39318,8.39318,0,0,1,957.88961,790.90346Z" style="fill: #37386b"/>
                  <path d="M949.49663,796.13121a5.22765,5.22765,0,0,1-5.22731-5.22731V752.91376a5.22731,5.22731,0,0,1,10.45462,0V790.9039A5.22756,5.22756,0,0,1,949.49663,796.13121Z" style="fill: #37386b"/>
                </g>
                <g>
                  <path d="M1008.59473,790.90346a8.39313,8.39313,0,1,1-8.39313-8.39327A8.39315,8.39315,0,0,1,1008.59473,790.90346Z" style="fill: #37386b"/>
                  <path d="M1000.20189,796.13121a5.22768,5.22768,0,0,1-5.22745-5.22731V752.91376a5.22738,5.22738,0,0,1,10.45476,0V790.9039A5.22765,5.22765,0,0,1,1000.20189,796.13121Z" style="fill: #37386b"/>
                </g>
                <g>
                  <path d="M1059.3,790.90346a8.39321,8.39321,0,1,1-8.39328-8.39327A8.39318,8.39318,0,0,1,1059.3,790.90346Z" style="fill: #37386b"/>
                  <path d="M1050.907,796.13121a5.22765,5.22765,0,0,1-5.22731-5.22731V752.91376a5.22731,5.22731,0,0,1,10.45462,0V790.9039A5.22755,5.22755,0,0,1,1050.907,796.13121Z" style="fill: #37386b"/>
                </g>
                <g>
                  <path d="M1110.00512,790.90346a8.39321,8.39321,0,1,1-8.39313-8.39327A8.39315,8.39315,0,0,1,1110.00512,790.90346Z" style="fill: #37386b"/>
                  <path d="M1101.61228,796.13121a5.22768,5.22768,0,0,1-5.22746-5.22731V752.91376a5.22739,5.22739,0,0,1,10.45477,0V790.9039A5.22765,5.22765,0,0,1,1101.61228,796.13121Z" style="fill: #37386b"/>
                </g>
              </g>
              <g>
                <g>
                  <rect x="832.34866" y="849.75891" width="42.40776" height="42.40762" style="fill: #37386b"/>
                  <rect x="892.99687" y="849.75891" width="42.40776" height="42.40762" style="fill: #fff"/>
                  <rect x="953.64508" y="849.75891" width="42.40776" height="42.40762" style="fill: #fff"/>
                  <rect x="1014.29344" y="849.75891" width="42.40762" height="42.40762" style="fill: #fff"/>
                  <rect x="1074.94165" y="849.75891" width="42.40762" height="42.40762" style="fill: #37386b"/>
                </g>
                <g>
                  <rect x="832.34866" y="905.95274" width="42.40776" height="42.40776" style="fill: #fff"/>
                  <rect x="892.99687" y="905.95274" width="42.40776" height="42.40776" style="fill: #fff"/>
                  <rect x="953.64508" y="905.95274" width="42.40776" height="42.40776" style="fill: #37386b"/>
                  <rect x="1014.29344" y="905.95274" width="42.40762" height="42.40776" style="fill: #fff"/>
                  <rect x="1074.94165" y="905.95274" width="42.40762" height="42.40776" style="fill: #fff"/>
                </g>
                <g>
                  <rect x="832.34866" y="962.14672" width="42.40776" height="42.40762" style="fill: #fff"/>
                  <rect x="892.99687" y="962.14672" width="42.40776" height="42.40762" style="fill: #fff"/>
                  <rect x="953.64508" y="962.14672" width="42.40776" height="42.40762" style="fill: #fff"/>
                  <rect x="1014.29344" y="962.14672" width="42.40762" height="42.40762" style="fill: #fff"/>
                  <rect x="1074.94165" y="962.14672" width="42.40762" height="42.40762" style="fill: #fff"/>
                </g>
              </g>
            </g>
          </g>
          <rect x="261.55551" y="1032.1045" width="1436.59373" height="9.8955" style="fill: #3b0b3c"/>
        </g>
        <g>
          <path d="M1498.10862,919.99912c1.23048-31.55741,4.43057-57.82412,15.93689-63.36435,7.6643-3.69032,24.739-8.29376,38.221,9.62077s18.31777,50.51277,18.61023,62.1037c.5173,20.50218-19.24464,29.6585-39.62177,27.26989S1497.12293,945.27852,1498.10862,919.99912Z" style="fill-rule: evenodd;fill: url(#linear-gradient)"/>
          <g id="_Group_" data-name="&lt;Group&gt;">
            <g style="clip-path: url(#clip-path)">
              <path id="_Path_" data-name="&lt;Path&gt;" d="M1513.03766,680.9974l15.58042,20.74349c5.99276,4.98885-2.35409,7.10926,4.82876,10.74377,6.785,3.43319,15.38306,6.3,17.21117,14.68035,3.4949,16.0214-19.22934,28.31994-32.28272,28.39389-5.06591.02874,10.05814,2.07417,5.16563.75971-10.27963-2.76189-41.95568,3.967-50.94021-1.74066-1.04082-.66124-60.80863-28.641-61.78386-29.43678,0,0-6.38433-58.13756,24.785-66.38387S1511.01644,684.70125,1513.03766,680.9974Z" style="fill: url(#radial-gradient)"/>
            </g>
            <path id="_Path_2" data-name="&lt;Path&gt;" d="M1683.872,612.35586c5.61554,6.65489-6.79458,32.39686-9.66406,35.00868s-4.3763,8.99961-8.23239,8.56826c-4.76688-.53324-8.60127-4.06966-11.80148-7.6432-6.55529-7.32013-20.40365-14.67441-13.93224-24.10642C1646.01331,615.77124,1677.08179,604.30892,1683.872,612.35586Z" style="fill: #ff9e18;fill-rule: evenodd"/>
            <path id="_Path_3" data-name="&lt;Path&gt;" d="M1640.24177,624.18315c5.63983-8.22,35.42135-19.34163,43.11437-12.337-10.255-3.59729-35.43408,6.29806-40.57288,13.78778-6.47138,9.432,7.37693,16.78629,13.93226,24.10644a32.59114,32.59114,0,0,0,5.60484,5.15009c-3.12926-1.415-5.80956-3.99144-8.14634-6.60083C1647.6187,640.96944,1633.77039,633.61517,1640.24177,624.18315Z" style="fill: #f6e948;fill-rule: evenodd"/>
            <path id="_Path_4" data-name="&lt;Path&gt;" d="M1682.08261,610.94827a6.13465,6.13465,0,0,1,1.78932,1.40757c5.61558,6.65491-6.79458,32.39688-9.664,35.00864s-4.37632,8.99967-8.23239,8.5683c-4.76692-.53323-8.60127-4.06962-11.80152-7.6432a66.44331,66.44331,0,0,0-5.48193-5.202C1678.92529,624.32274,1682.08121,614.30749,1682.08261,610.94827Z" style="fill: url(#radial-gradient-2)"/>
            <path id="_Path_5" data-name="&lt;Path&gt;" d="M1488.81234,614.385c-6.03836,6.27376,4.66327,32.77158,7.356,35.56531s3.77892,9.26633,7.65495,9.08785c4.79153-.22064,8.8488-3.499,12.27567-6.85577,7.01957-6.87616,21.31886-13.30989,15.47756-23.14458C1526.36692,620.2667,1496.11377,606.79888,1488.81234,614.385Z" style="fill: #ff9e18;fill-rule: evenodd"/>
            <g id="_Group_2" data-name="&lt;Group&gt;">
              <path id="_Path_6" data-name="&lt;Path&gt;" d="M1489.41755,613.86043a6.15256,6.15256,0,0,1,.60519-.40507Q1489.70677,613.64527,1489.41755,613.86043Z" style="fill: #f6e948;fill-rule: evenodd"/>
              <path id="_Path_7" data-name="&lt;Path&gt;" d="M1513.073,653.24864c7.01952-6.87617,21.31891-13.30986,15.47751-23.14457-4.4883-7.55679-27.55449-18.58756-38.52772-16.64876,8.93337-5.36861,36.59244,7.22953,41.55365,15.58245,5.84128,9.83469-8.458,16.2684-15.4775,23.14457-2.94364,2.88336-6.356,5.69562-10.29567,6.575A28.88816,28.88816,0,0,0,1513.073,653.24864Z" style="fill: #f6e948;fill-rule: evenodd"/>
              <path id="_Path_8" data-name="&lt;Path&gt;" d="M1505.26343,658.8582c.1799-.03312.36116-.06092.53934-.10073C1505.62454,658.79721,1505.44385,658.82651,1505.26343,658.8582Z" style="fill: #f6e948;fill-rule: evenodd"/>
            </g>
            <path id="_Path_9" data-name="&lt;Path&gt;" d="M1490.68983,613.09729a6.13459,6.13459,0,0,0-1.87747,1.28766c-6.0384,6.27376,4.66327,32.77159,7.356,35.56526s3.77894,9.26638,7.655,9.08789c4.79157-.22062,8.84879-3.49892,12.27569-6.85576a66.44434,66.44434,0,0,1,5.81011-4.83267C1492.96652,626.64948,1490.47174,616.44942,1490.68983,613.09729Z" style="fill: url(#radial-gradient-3)"/>
            <path id="_Path_10" data-name="&lt;Path&gt;" d="M1471.33365,677.93717c-6.62418-5.62335-13.95851-10.87183-22.45161-12.70727a20.82666,20.82666,0,0,0-23.09444,10.96167c-10.66441,19.76428-2.09335,41.06305,11.78321,49.87863,8.98451,5.70773,19.45567,8.53057,29.73534,11.29245,4.89248,1.31448,9.85868,2.6297,14.92457,2.601,13.05336-.074,35.77757-12.37254,32.28269-28.394-1.82808-8.38034-10.42621-11.24715-17.21112-14.6803C1487.43933,691.89876,1479.70025,685.0397,1471.33365,677.93717Z" style="fill-rule: evenodd;fill: url(#linear-gradient-2)"/>
            <path id="_Path_11" data-name="&lt;Path&gt;" d="M1599.26077,588.844c97.11945,57.95093,165.0444,217.34477,110.45552,271.26106-17.04363,16.83364-57.63562,35.33434-77.16118,37.20761-35.82682,3.43724-92.67234,8.40156-135.6499-28.00868-31.79661-26.93783-34.599-70.5634-30.61734-108.7396,1.58544-15.2013,5.54484-30.66383,9.60256-46.79084,10.41325-41.38635,35.23357-81.76581,48.54983-99.81816C1551.89308,576.73865,1577.79773,576.03707,1599.26077,588.844Z" style="fill-rule: evenodd;fill: url(#linear-gradient-3)"/>
            <g id="_Group_3" data-name="&lt;Group&gt;">
              <path id="_Path_12" data-name="&lt;Path&gt;" d="M1480.91784,696.88835c-.10206.29955-.20759.5979-.30847.89787C1480.71034,697.48608,1480.81576,697.188,1480.91784,696.88835Z" style="fill: #f6e948;fill-rule: evenodd"/>
              <path id="_Path_13" data-name="&lt;Path&gt;" d="M1479.17105,702.22358q-.18856.60021-.37431,1.2009Q1478.98177,702.82319,1479.17105,702.22358Z" style="fill: #f6e948;fill-rule: evenodd"/>
              <path id="_Path_14" data-name="&lt;Path&gt;" d="M1484.79267,686.30257q-.26932.68886-.53526,1.37982Q1484.52315,686.99088,1484.79267,686.30257Z" style="fill: #f6e948;fill-rule: evenodd"/>
              <path id="_Path_15" data-name="&lt;Path&gt;" d="M1482.68,691.88545c-.137.37549-.26983.75307-.40513,1.12936C1482.41023,692.63828,1482.543,692.26111,1482.68,691.88545Z" style="fill: #f6e948;fill-rule: evenodd"/>
              <path id="_Path_16" data-name="&lt;Path&gt;" d="M1491.3035,670.96954q-.353.771-.703,1.54681Q1490.95074,671.74016,1491.3035,670.96954Z" style="fill: #f6e948;fill-rule: evenodd"/>
              <path id="_Path_17" data-name="&lt;Path&gt;" d="M1493.71624,665.82247c-.23223.48448-.46559.96626-.69644,1.45391C1493.2507,666.78837,1493.48391,666.30725,1493.71624,665.82247Z" style="fill: #f6e948;fill-rule: evenodd"/>
              <path id="_Path_18" data-name="&lt;Path&gt;" d="M1488.89886,676.35126c-.19016.43722-.37654.87851-.565,1.31759C1488.52236,677.22953,1488.70867,676.78872,1488.89886,676.35126Z" style="fill: #f6e948;fill-rule: evenodd"/>
              <path id="_Path_19" data-name="&lt;Path&gt;" d="M1486.92972,680.9974c-.16567.39974-.3339.79718-.498,1.19826C1486.59586,681.79434,1486.764,681.39731,1486.92972,680.9974Z" style="fill: #f6e948;fill-rule: evenodd"/>
              <path id="_Path_20" data-name="&lt;Path&gt;" d="M1477.47111,707.89428c-.09333.32833-.18225.65738-.27388.986C1477.289,708.55149,1477.37782,708.2228,1477.47111,707.89428Z" style="fill: #f6e948;fill-rule: evenodd"/>
              <path id="_Path_21" data-name="&lt;Path&gt;" d="M1471.11678,750.52942c.00365.29308.00539.5865.0114.879C1471.12217,751.11592,1471.12043,750.8225,1471.11678,750.52942Z" style="fill: #f6e948;fill-rule: evenodd"/>
              <path id="_Path_22" data-name="&lt;Path&gt;" d="M1471.45144,740.18443c-.02139.28292-.03805.56471-.05754.8473C1471.41339,740.74914,1471.43005,740.46735,1471.45144,740.18443Z" style="fill: #f6e948;fill-rule: evenodd"/>
              <path id="_Path_23" data-name="&lt;Path&gt;" d="M1471.154,745.68184c-.0017.054-.00525.10846-.00683.16251C1471.14878,745.7903,1471.15238,745.73594,1471.154,745.68184Z" style="fill: #f6e948;fill-rule: evenodd"/>
              <path id="_Path_24" data-name="&lt;Path&gt;" d="M1471.31672,755.90118c.01787.2789.0408.55652.061.83485C1471.35759,756.45765,1471.33464,756.18015,1471.31672,755.90118Z" style="fill: #f6e948;fill-rule: evenodd"/>
              <path id="_Path_25" data-name="&lt;Path&gt;" d="M1476.04922,713.17157c-.05123.201-.1061.40152-.15665.60253C1475.94319,713.573,1475.99792,713.37259,1476.04922,713.17157Z" style="fill: #f6e948;fill-rule: evenodd"/>
              <path id="_Path_26" data-name="&lt;Path&gt;" d="M1473.61525,724.08791c-.05656.29843-.10847.59675-.16329.89507C1473.50679,724.68454,1473.55867,724.38646,1473.61525,724.08791Z" style="fill: #f6e948;fill-rule: evenodd"/>
              <path id="_Path_27" data-name="&lt;Path&gt;" d="M1471.9943,734.61729c-.03762.32009-.0763.64021-.11171.95995C1471.918,735.25743,1471.95661,734.93743,1471.9943,734.61729Z" style="fill: #f6e948;fill-rule: evenodd"/>
              <path id="_Path_28" data-name="&lt;Path&gt;" d="M1474.79125,718.42508c-.07913.35286-.15875.70566-.23566,1.05849C1474.63259,719.13057,1474.7121,718.77807,1474.79125,718.42508Z" style="fill: #f6e948;fill-rule: evenodd"/>
              <path id="_Path_29" data-name="&lt;Path&gt;" d="M1472.62258,729.88876c.01793-.11892.03942-.23812.05766-.35706C1472.662,729.65064,1472.64051,729.76984,1472.62258,729.88876Z" style="fill: #f6e948;fill-rule: evenodd"/>
              <path id="_Path_30" data-name="&lt;Path&gt;" d="M1599.749,592.10442c-21.8729-12.80192-48.45856-11.78819-77.05384,26.45a347.99723,347.99723,0,0,0-26.92359,43.04764c-.241.48521-.47979.97742-.71972,1.46631a337.28094,337.28094,0,0,1,29.38841-49.113c27.45281-37.21676,53.35749-37.91837,74.82051-25.11146,52.42624,31.28258,96.24524,88.7976,120.45039,160.01587C1698.34179,685.98522,1651.81049,622.57527,1599.749,592.10442Z" style="fill: #f6e948;fill-rule: evenodd"/>
            </g>
            <g style="clip-path: url(#clip-path-2)">
              <path id="_Path_31" data-name="&lt;Path&gt;" d="M1715.68873,882.80492c-.445.40359-9.81484,1.09935-10.49678,1.54577-.026.01711-.053.03409-.07915.05118q-1.013.66213-2.06543,1.32293c-.0991.06241-.19684.12477-.29636.18706q-1.0375.64948-2.10892,1.29526-.1973.11915-.39574.23807-1.07931.64722-2.18636,1.28907c-.09618.05562-.19375.1111-.29029.16667q-1.127.64917-2.27924,1.29065l-.10608.05952q-1.17336.65108-2.37248,1.29058-.18483.099-.36985.19784-1.16817.62127-2.35538,1.2302-.18687.09579-.37446.191-1.2252.62481-2.46556,1.23526c-.03665.018-.07361.03558-.11027.05358q-1.24051.60761-2.49426,1.19707c-.08243.03877-.16446.07823-.24693.11693q-1.23892.5808-2.487,1.141-.19652.08841-.3932.17632-1.24686.557-2.49875,1.093c-.0919.03934-.18384.07775-.27582.11683q-2.60388,1.10722-5.20936,2.10718c-.10716.04108-.21453.08274-.32166.12358q-1.2522.47664-2.49866.92431c-.11628.04182-.23246.08291-.3487.12436q-1.27114.45279-2.53315.87526c-.04445.01486-.08872.02882-.1333.04366q-1.281.42528-2.54834.81482c-.04227.013-.08483.0268-.12709.03971q-1.24785.38169-2.47753.72435c-.10917.03052-.21837.06129-.3273.09142q-1.21081.33459-2.4018.63152c-.08737.0218-.1741.04227-.26134.06365q-2.46331.60463-4.81779,1.03065c-.07488.01341-.15043.02807-.22515.04126q-1.1318.19983-2.23122.35282c-.09984.014-.19923.02734-.29861.04074-.73687.0993-1.4638.18489-2.17633.25145-.04766.00444-.09424.00743-.14176.01177-.7325.0663-1.45258.11641-2.15661.14626l-.04252.00224c-.69044.0286-1.36356.03546-2.02425.0273-.08365-.00105-.16783-.00138-.251-.003q-.95987-.01869-1.874-.09164c-.07622-.00613-.151-.01383-.22674-.02055-.62536-.05538-1.2374-.1263-1.82708-.22218L1482.27489,925.596l-71.27343-96.26773,300.77429-125.33288c20.03277,53.37691,102.17047,150.61663,32.9514,179.17569-.54164.22348-25.14625.53957-25.606.96109C1719.04819,884.19905,1715.76273,882.73777,1715.68873,882.80492Z" style="fill-rule: evenodd;fill: url(#radial-gradient-4)"/>
            </g>
            <path id="_Path_32" data-name="&lt;Path&gt;" d="M1568.78218,628.30243c52.57075-9.35571,113.64445,122.54931,116.87132,162.64384,3.74277,46.50472-58.86488,62.98041-82.75464,64.628-10.061.69386-55.19359,6.59028-81.8293-14.00434-19.4421-15.03255-23.01069-37.10865-23.01069-52.173S1512.38185,638.33968,1568.78218,628.30243Z" style="fill-rule: evenodd;fill: url(#radial-gradient-5)"/>
            <path id="_Path_33" data-name="&lt;Path&gt;" d="M1610.56259,692.69894l-53.15717,5.898s4.3492,35.20876,32.11445,31.08768C1614.23984,726.01558,1610.56259,692.69894,1610.56259,692.69894Z" style="fill: url(#radial-gradient-6)"/>
            <path id="_Path_34" data-name="&lt;Path&gt;" d="M1610.56259,692.69894l-53.15717,5.898s4.28874,31.163,32.054,27.04191C1614.17938,721.96982,1610.56259,692.69894,1610.56259,692.69894Z" style="fill: #b73d25"/>
            <path id="_Path_35" data-name="&lt;Path&gt;" d="M1600.02482,682.02054a9.0605,9.0605,0,0,1,7.69437-7.00429c4.429-.69111,8.5192,1.60059,12.07683,3.94685,2.39123,1.57709-.3691,5.06388-2.74117,3.49944-3.05874-2.01725-11.27554-5.97471-12.63454.21374C1603.8093,685.45873,1599.41,684.82036,1600.02482,682.02054Z" style="fill: #b73d25"/>
            <path id="_Path_36" data-name="&lt;Path&gt;" d="M1566.80447,686.71189a9.06048,9.06048,0,0,0-7.98236-6.67423c-4.45412-.50409-8.44428,1.95775-11.9,4.45166-2.32272,1.67634.58192,5.04387,2.886,3.381,2.97112-2.1442,11.01407-6.444,12.63234-.31824C1563.16806,690.30632,1567.53663,689.48335,1566.80447,686.71189Z" style="fill: #b73d25"/>
          </g>
          <g id="_Group_4" data-name="&lt;Group&gt;">
            <path id="_Path_37" data-name="&lt;Path&gt;" d="M1595.0301,755.84057s-9.04975,22.70838,12.26261,41.4547a50.12932,50.12932,0,0,0,35.11833,12.15315l-40.43283-55.51427Z" style="fill: none"/>
            <path id="_Path_38" data-name="&lt;Path&gt;" d="M1693.75525,738.2706c-18.766-16.21084-59.97742-8.06252-75.44815-2.59662-3.08543,1.0901-15.9582,4.95912-20.6318,13.7599-9.57482,18.0302.14094,34.59666,6.86131,38.7087,18.58613,11.3724,27.19676,11.52393,51.15369,9.78849,12.406-.89869,44.95811-10.51072,48.18207-26.138C1705.1843,765.43389,1710.28484,752.54956,1693.75525,738.2706Z" style="fill: url(#linear-gradient-4)"/>
            <path id="_Path_39" data-name="&lt;Path&gt;" d="M1655.6903,797.93106c-23.9569,1.73545-32.56755,1.58393-51.15372-9.78849a19.08274,19.08274,0,0,1-5.23737-5.2254c11.202-16.17234,39.87036,3.31712,78.64608-6.73743,27.6568-7.1714,24.74965-19.4208,27.3085-14.94557.19853,4.13641-1.133,11.5512-2.96156,14.5934C1693.9499,789.707,1668.0962,797.03236,1655.6903,797.93106Z" style="fill: url(#radial-gradient-7)"/>
          </g>
          <g>
            <path d="M1737.84756,885.1761c-31.26428-4.46422-57.06358-10.34441-61.39309-22.35877-2.88386-8.00271-5.70979-25.45982,13.49436-37.03115s52.12663-13.03442,63.68632-12.1352c20.44694,1.59055,27.52575,22.1882,23.05749,42.21237S1762.89213,888.75221,1737.84756,885.1761Z" style="fill-rule: evenodd;fill: url(#linear-gradient-5)"/>
            <g style="clip-path: url(#clip-path-3)">
              <path d="M1779.522,830.59883s-6.96673-20.16685-30.06694-11.36677-26.85407,38.50036-29.74386,44.36708-38.09011,8.43341-50.92356-3.6667,2.76652,23.81223,5.6,25.83958,64.434,22.82418,73.2341,18.84249,14.66681-8.7484,24.93357-13.14844,24.20023-13.5668,24.20023-13.5668,3.3-16.70687,3.3-24.67025S1779.522,830.59883,1779.522,830.59883Z" style="fill-rule: evenodd;fill: url(#linear-gradient-6)"/>
            </g>
          </g>
        </g>
      </g>
    </g>
  </g>
</svg>
